<?xml version="1.0" encoding="UTF-8"?><!DOCTYPE svg PUBLIC "-//W3C//DTD SVG 1.1//EN" "http://www.w3.org/Graphics/SVG/1.1/DTD/svg11.dtd"><svg xmlns="http://www.w3.org/2000/svg" xmlns:xlink="http://www.w3.org/1999/xlink"><symbol id="attention_filled-l1" viewBox="0 0 16 16"><path opacity=".4" fill-rule="evenodd" clip-rule="evenodd" d="M8 1a7 7 0 1 1 0 14A7 7 0 0 1 8 1Z"/><path fill-rule="evenodd" clip-rule="evenodd" d="M8 4.25a.75.75 0 0 1 .75.75v3a.75.75 0 0 1-1.5 0V5A.75.75 0 0 1 8 4.25Zm0 6a.75.75 0 0 1 .75.75v.5a.75.75 0 1 1-1.5 0V11a.75.75 0 0 1 .75-.75Z"/></symbol></svg>