<svg xmlns="http://www.w3.org/2000/svg" width="36.84" height="41.918" viewBox="0 0 36.84 41.918"><g id="globus" transform="translate(-0.08 0)"><path id="Shape" d="M28.031,41.918a8.686,8.686,0,0,1-5.791-2.226,9.064,9.064,0,0,1-2.928-5.5,16.242,16.242,0,0,1-2.493.189A16.458,16.458,0,0,1,8.344,32.04a17.221,17.221,0,0,1-6.035-6.161.918.918,0,0,1-.105-.184,17.533,17.533,0,0,1-1.449-13.6A.848.848,0,0,1,.8,11.958,17.137,17.137,0,0,1,2.2,8.691a1.11,1.11,0,0,1,.1-.183A17.147,17.147,0,0,1,8.344,2.346a16.477,16.477,0,0,1,16.949,0,17.162,17.162,0,0,1,6.035,6.162.875.875,0,0,1,.1.184,17.5,17.5,0,0,1,1.879,11.86.856.856,0,0,1-.034.167,17.76,17.76,0,0,1-1.385,4.1,8.925,8.925,0,0,1,3.571,3.264,9.115,9.115,0,0,1,1.376,4.829A8.919,8.919,0,0,1,28.031,41.918Zm0-16.375a7.3,7.3,0,0,0-7.208,7.368c0,.05,0,.1,0,.151s0,.075,0,.116v.026a7.4,7.4,0,0,0,2.2,5.01,7.088,7.088,0,0,0,5,2.065,7.392,7.392,0,0,0,2.318-14.345l-.008,0-.008,0c-.088-.03-.184-.061-.293-.094l-.024-.007-.024-.007c-.051-.015-.1-.03-.156-.043-.068-.018-.127-.033-.181-.045l-.09-.021-.041-.009-.108-.022-.05-.01-.078-.014-.066-.012-.183-.029L29,25.61l-.044-.006c-.075-.01-.157-.019-.249-.028l-.036,0-.036,0c-.1-.008-.183-.014-.263-.018l-.051,0C28.2,25.546,28.114,25.544,28.031,25.544ZM12.8,26.2a23.374,23.374,0,0,0,.673,2.284c.947,2.67,2.2,4.265,3.349,4.266s2.4-1.6,3.35-4.266A23.336,23.336,0,0,0,20.84,26.2Zm-8.378,0a15.179,15.179,0,0,0,9.23,6.209,13.273,13.273,0,0,1-1.686-3.367,25.823,25.823,0,0,1-.814-2.842Zm19-8.187a42.1,42.1,0,0,1-.6,6.55h1.917l.006,0,.006,0,.017-.007.04-.016.035-.014.075-.03.03-.012.048-.018.047-.017.107-.039.048-.017.008,0,.005,0,.006,0,.01,0,.016-.005.109-.036.031-.01.023-.007.04-.014.11-.033.018-.005.078-.023.111-.031.1-.026.112-.028.1-.024.094-.022.017,0,.05-.011.05-.011.115-.023.049-.01.049-.009.117-.02.1-.016.026,0,.026,0,.052-.007.015,0,.032,0,.065-.009.111-.014h.012l.033,0h.007l.05-.005.131-.013.032,0,.02,0,.019,0,.157-.009.088-.005.149-.006.074,0,.224,0c.079,0,.159,0,.269,0l.043,0h.043l.186.009.08.006c.084.005.152.012.22.018l.121.013.184.023.131.018.121.02.145.024.084.016c.15.031.241.049.324.068l.02,0,.024.005.135.033.05.013.041.011.046.012.009,0,.083.023a15.739,15.739,0,0,0,1.11-2.947H29.228a.819.819,0,0,1,0-1.637h2.615a16.2,16.2,0,0,0,.17-1.638Zm-11.6,0a40.167,40.167,0,0,0,.627,6.55h8.741a40.034,40.034,0,0,0,.628-6.55Zm-10.2,0a15.63,15.63,0,0,0,1.8,6.55h7.4a42.432,42.432,0,0,1-.6-6.55ZM22.817,9.824a42.737,42.737,0,0,1,.6,6.55h8.6a15.626,15.626,0,0,0-1.8-6.55Zm-10.369,0a40.205,40.205,0,0,0-.627,6.55h10a40.188,40.188,0,0,0-.628-6.55ZM2.138,13.1a15.909,15.909,0,0,0-.515,3.275h8.6a42.312,42.312,0,0,1,.6-6.55H3.42a15.544,15.544,0,0,0-.748,1.638H4.82a.819.819,0,0,1,0,1.637ZM19.988,1.978a13.244,13.244,0,0,1,1.686,3.367,25.823,25.823,0,0,1,.814,2.842h6.731A15.182,15.182,0,0,0,19.988,1.978Zm-3.17-.341c-1.15,0-2.4,1.595-3.35,4.266-.242.682-.468,1.451-.672,2.284H20.84c-.195-.8-.421-1.569-.672-2.284C19.22,3.232,17.968,1.637,16.818,1.637Zm-3.17.341a15.179,15.179,0,0,0-9.23,6.209h6.731a25.609,25.609,0,0,1,.814-2.842A13.237,13.237,0,0,1,13.649,1.978Z" transform="translate(0.08)" fill="#8a8c8f"/><path id="Shape-2" data-name="Shape" d="M2,0A2.027,2.027,0,0,0,0,2.047,2.051,2.051,0,0,0,1.2,3.922V6.14a.8.8,0,1,0,1.6,0V3.922A2.051,2.051,0,0,0,4,2.047,2.027,2.027,0,0,0,2,0Z" transform="translate(26.108 29.433)" fill="#8a8c8f"/><path id="Shape-3" data-name="Shape" d="M.82,0H.8A.81.81,0,0,0,0,.819a.81.81,0,0,0,.8.819H.82a.81.81,0,0,0,.8-.819A.81.81,0,0,0,.82,0Z" transform="translate(6.401 11.462)" fill="#8a8c8f"/><path id="Shape-4" data-name="Shape" d="M.82,0H.8A.81.81,0,0,0,0,.819a.81.81,0,0,0,.8.819H.82a.81.81,0,0,0,.8-.819A.81.81,0,0,0,.82,0Z" transform="translate(26.188 19.649)" fill="#8a8c8f"/></g></svg>