<?xml version="1.0" encoding="UTF-8"?><!DOCTYPE svg PUBLIC "-//W3C//DTD SVG 1.1//EN" "http://www.w3.org/Graphics/SVG/1.1/DTD/svg11.dtd"><svg xmlns="http://www.w3.org/2000/svg" xmlns:xlink="http://www.w3.org/1999/xlink"><symbol id="check_shield_filled-l2" viewBox="0 0 24 24"><path opacity=".4" d="M11.302 21.615c.221.13.332.194.488.228.122.026.298.026.42 0 .156-.034.267-.099.488-.228C14.646 20.48 20 16.91 20 12V7.218c0-.8 0-1.2-.13-1.543a2 2 0 0 0-.548-.79c-.275-.242-.65-.383-1.398-.663L12.562 2.21c-.208-.078-.312-.117-.419-.132a1 1 0 0 0-.286 0c-.107.015-.21.054-.419.132L6.076 4.22c-.748.281-1.122.422-1.398.665a2 2 0 0 0-.547.79C4 6.018 4 6.417 4 7.217V12c0 4.909 5.354 8.479 7.302 9.615Z"/><path fill-rule="evenodd" clip-rule="evenodd" d="M17.678 7.765a1 1 0 0 1 .057 1.413l-6 6.5a1 1 0 0 1-1.442.03l-3-3a1 1 0 1 1 1.414-1.415l2.264 2.264 5.294-5.735a1 1 0 0 1 1.413-.057Z"/></symbol></svg>