<svg width="27" height="20" viewBox="0 0 27 20" fill="none" xmlns="http://www.w3.org/2000/svg"><path d="M25.5556 0H1.11111C0.497778 0 0 0.497778 0 1.11111V18.8889C0 19.5022 0.497778 20 1.11111 20H25.5556C26.1689 20 26.6667 19.5022 26.6667 18.8889V1.11111C26.6667 0.497778 26.1689 0 25.5556 0Z" fill="#002781"/><path d="M26.6667 1.11111C26.6667 0.497778 26.1689 0 25.5556 0H22.6883L15.5556 5.48667V0H11.1111V5.48667L3.97833 0H1.11111C0.497778 0 0 0.497778 0 1.11111V2.54778L6.79944 7.77778H0V12.2222H6.79944L0 17.4528V18.8889C0 19.5022 0.497778 20 1.11111 20H3.97833L11.1111 14.5133V20H15.5556V14.5133L22.6883 20H25.5556C26.1689 20 26.6667 19.5022 26.6667 18.8889V17.4528L19.8672 12.2222H26.6667V7.77778H19.8672L26.6667 2.54778V1.11111Z" fill="#E6E6E6"/><path d="M26.6667 8.88889H14.4444V0H12.2222V8.88889H0V11.1111H12.2222V20H14.4444V11.1111H26.6667V8.88889Z" fill="#D10D24"/><path d="M26.1121 0.169922L16.2227 7.77714H18.0449L26.6671 1.14492V1.11048C26.6671 0.703811 26.4377 0.363811 26.1121 0.169922Z" fill="#D10D24"/><path d="M18.0449 12.2227H16.2227L26.1121 19.8299C26.4377 19.636 26.6671 19.296 26.6671 18.8893V18.8549L18.0449 12.2227Z" fill="#D10D24"/><path d="M8.62222 12.2227L0 18.8549V18.8893C0 19.296 0.229444 19.636 0.555 19.8299L10.4444 12.2227H8.62222Z" fill="#D10D24"/><path d="M8.62222 7.77714H10.4444L0.555 0.169922C0.229444 0.363811 0 0.703811 0 1.11048V1.14492L8.62222 7.77714Z" fill="#D10D24"/></svg>