<?xml version="1.0" encoding="UTF-8"?><!DOCTYPE svg PUBLIC "-//W3C//DTD SVG 1.1//EN" "http://www.w3.org/Graphics/SVG/1.1/DTD/svg11.dtd"><svg xmlns="http://www.w3.org/2000/svg" xmlns:xlink="http://www.w3.org/1999/xlink"><symbol id="gemstone_filled-l2" viewBox="0 0 24 24"><path d="M12 20.5 8 10h8l-4 10.5ZM10 4H7l-5 6h6l2-6Zm4 0h3l5 6h-6l-2-6Z" opacity=".4"/><path fill-rule="evenodd" clip-rule="evenodd" d="M7.348 3h6.629a.97.97 0 0 1 .046 0h2.629c.099-.001.303-.003.503.051.17.046.33.121.474.222.17.12.3.277.362.354l.017.02 4.328 5.194c.067.08.148.178.214.27.078.11.177.27.235.482a1.5 1.5 0 0 1-.018.847c-.067.21-.173.365-.255.47-.07.09-.156.185-.227.262l-8.97 9.868c-.088.096-.19.21-.289.3a1.513 1.513 0 0 1-.536.334 1.5 1.5 0 0 1-.98 0 1.513 1.513 0 0 1-.537-.333 5.12 5.12 0 0 1-.288-.301l-.017-.019-8.94-9.833a4.527 4.527 0 0 1-.014-.016c-.07-.077-.156-.171-.226-.261a1.503 1.503 0 0 1-.255-.47 1.5 1.5 0 0 1-.018-.848c.057-.212.157-.372.234-.481a4.5 4.5 0 0 1 .215-.271l.013-.016 4.315-5.177.017-.021c.062-.076.192-.234.362-.354a1.5 1.5 0 0 1 .473-.222C7.045 2.997 7.25 3 7.348 3Zm5.931 2h-2.558L9.387 9h5.225L13.28 5Zm3.442 4-1.334-4h1.145l3.333 4H16.72Zm-2.172 2-2.55 6.69L9.452 11h5.098Zm-7.27-2 1.333-4H7.468L4.135 9h3.144ZM4.26 11h3.05l2.2 5.775L4.26 11Zm10.229 5.775 2.2-5.775h3.05l-5.25 5.775ZM7.6 4.842Zm-.339.159Zm9.476 0Zm-.34-.159Z"/></symbol></svg>