<svg width="32" height="32" viewBox="0 0 32 32" fill="none" xmlns="http://www.w3.org/2000/svg"><circle cx="16" cy="16" r="16" fill="#F7F7F9"/><g clip-path="url(#clip0_3721_466)"><path d="M24.9999 16.2067C24.9999 15.5949 24.9493 14.9798 24.8413 14.3779H16.1804V17.8437H21.1401C20.9343 18.9614 20.273 19.9502 19.3047 20.5785V22.8273H22.2636C24.0012 21.2598 24.9999 18.9449 24.9999 16.2067Z" fill="#4285F4"/><path d="M16.1805 25C18.657 25 20.7455 24.203 22.2671 22.8273L19.3082 20.5785C18.4849 21.1275 17.4221 21.4384 16.1839 21.4384C13.7884 21.4384 11.7573 19.8543 11.0285 17.7246H7.9751V20.0428C9.53386 23.0819 12.7087 25 16.1805 25Z" fill="#34A853"/><path d="M11.0251 17.7246C10.6405 16.6068 10.6405 15.3965 11.0251 14.2787V11.9605H7.97505C6.67271 14.5036 6.67271 17.4997 7.97505 20.0428L11.0251 17.7246Z" fill="#FBBC04"/><path d="M16.1805 10.5616C17.4896 10.5418 18.7549 11.0246 19.7029 11.9109L22.3245 9.34135C20.6645 7.81352 18.4613 6.97354 16.1805 7C12.7087 7 9.53386 8.91806 7.9751 11.9605L11.0251 14.2787C11.7505 12.1457 13.785 10.5616 16.1805 10.5616Z" fill="#EA4335"/></g><defs><clipPath id="clip0_3721_466"><rect width="18" height="18" fill="white" transform="translate(7 7)"/></clipPath></defs></svg>