<svg width="26" height="24" viewBox="0 0 26 24" fill="none" xmlns="http://www.w3.org/2000/svg"><path fill-rule="evenodd" clip-rule="evenodd" d="M12.5946 0C19.5394 0 25.1892 4.585 25.1892 10.2195C25.1892 12.4718 24.3145 14.507 22.4894 16.5079C19.8475 19.55 13.9392 23.2556 12.5946 23.821C11.2861 24.3713 11.4388 23.5084 11.4991 23.1679C11.5007 23.1586 11.5023 23.1496 11.5038 23.1411C11.5357 22.9522 11.6833 22.0633 11.6833 22.0633C11.7258 21.7422 11.7694 21.2428 11.6419 20.9241C11.5015 20.5735 10.9431 20.3917 10.5323 20.3032C4.48584 19.504 0 15.2719 0 10.2195C0 4.585 5.6498 0 12.5946 0ZM16.1207 7.49608H15.2283C15.1656 7.49608 15.1056 7.52096 15.0613 7.56523C15.017 7.60951 14.9922 7.66956 14.9922 7.73218V10.9974L12.4777 7.60114C12.472 7.59215 12.4653 7.58384 12.4577 7.57636L12.4435 7.56219L12.4305 7.55157H12.4234L12.4104 7.54212H12.4034L12.3904 7.53504H11.3905C11.3279 7.53504 11.2678 7.55991 11.2236 7.60419C11.1793 7.64847 11.1544 7.70852 11.1544 7.77113V13.2675C11.1544 13.3301 11.1793 13.3901 11.2236 13.4344C11.2678 13.4787 11.3279 13.5036 11.3905 13.5036H12.2841C12.3467 13.5036 12.4068 13.4787 12.4511 13.4344C12.4954 13.3901 12.5202 13.3301 12.5202 13.2675V9.97038L15.0382 13.3702C15.0547 13.3943 15.0755 13.4151 15.0996 13.4316L15.1138 13.441H15.1692C15.1901 13.4462 15.2115 13.4489 15.233 13.4493H16.1207C16.1833 13.4493 16.2434 13.4244 16.2877 13.3801C16.3319 13.3358 16.3568 13.2758 16.3568 13.2132V7.7369C16.3574 7.7055 16.3518 7.67429 16.3402 7.6451C16.3286 7.61591 16.3113 7.58932 16.2893 7.56689C16.2674 7.54446 16.2411 7.52665 16.2122 7.51449C16.1832 7.50234 16.1521 7.49607 16.1207 7.49608ZM9.14758 7.49608H10.04C10.173 7.49608 10.2808 7.6039 10.2808 7.7369V13.2332C10.2808 13.3662 10.173 13.4741 10.04 13.4741H9.14758C9.01458 13.4741 8.90676 13.3662 8.90676 13.2332V7.7369C8.90676 7.6039 9.01458 7.49608 9.14758 7.49608ZM20.9985 13.4741H17.457C17.3944 13.4741 17.3343 13.4492 17.2901 13.4049C17.2458 13.3606 17.2209 13.3006 17.2209 13.238V7.7369C17.2209 7.67429 17.2458 7.61423 17.2901 7.56995C17.3343 7.52568 17.3944 7.50081 17.457 7.50081H20.9985C21.0611 7.50081 21.1211 7.52568 21.1654 7.56995C21.2097 7.61423 21.2346 7.67429 21.2346 7.7369V8.63053C21.2346 8.69315 21.2097 8.7532 21.1654 8.79747C21.1211 8.84175 21.0611 8.86663 20.9985 8.86663H18.5938V9.79331H20.9985C21.0611 9.79331 21.1211 9.81818 21.1654 9.86246C21.2097 9.90674 21.2346 9.96679 21.2346 10.0294V10.9372C21.2346 10.9998 21.2097 11.0599 21.1654 11.1041C21.1211 11.1484 21.0611 11.1733 20.9985 11.1733H18.5938V12.1012H20.9985C21.0611 12.1012 21.1211 12.126 21.1654 12.1703C21.2097 12.2146 21.2346 12.2746 21.2346 12.3373V13.2297C21.2357 13.2614 21.2304 13.293 21.219 13.3226C21.2076 13.3522 21.1904 13.3792 21.1684 13.402C21.1464 13.4248 21.12 13.443 21.0908 13.4553C21.0616 13.4677 21.0302 13.4741 20.9985 13.4741ZM7.91043 13.4741C7.97304 13.4741 8.0331 13.4492 8.07738 13.4049C8.12165 13.3606 8.14652 13.3006 8.14652 13.238V12.3455C8.14652 12.2829 8.12165 12.2228 8.07738 12.1786C8.0331 12.1343 7.97304 12.1094 7.91043 12.1094H5.50578V7.74162C5.50578 7.679 5.48091 7.61896 5.43663 7.57468C5.39235 7.5304 5.3323 7.50552 5.26968 7.50552H4.37723C4.31462 7.50552 4.25457 7.5304 4.21029 7.57468C4.16602 7.61896 4.14114 7.679 4.14114 7.74162V13.2344C4.14114 13.297 4.16602 13.3571 4.21029 13.4014C4.25457 13.4456 4.31462 13.4705 4.37723 13.4705H7.91869L7.91043 13.4741Z" fill="white"/></svg>