<?xml version="1.0" encoding="UTF-8"?><svg width="148px" height="28px" viewBox="0 0 148 28" version="1.1" xmlns="http://www.w3.org/2000/svg" xmlns:xlink="http://www.w3.org/1999/xlink"><defs><polygon id="path-1" points="0.0130516959 0.123407407 117.856018 0.123407407 117.856018 24.9336716 0.0130516959 24.9336716"/><polygon id="path-3" points="0 0.123418667 19.0936445 0.123418667 19.0936445 27.8271605 0 27.8271605"/></defs><g id="Page-1" stroke="none" stroke-width="1" fill="none" fill-rule="evenodd"><g id="dark_example" transform="translate(-40.000000, -44.000000)"><g id="logo-wh" transform="translate(40.000000, 44.000000)"><g id="logo"><g id="Group-3" transform="translate(30.119298, 0.049432)"><mask id="mask-2" fill="white"><use xlink:href="#path-1"/></mask><g id="Clip-2"/><path d="M9.29273825,20.5499432 C6.94152889,20.5499432 5.03501193,18.6466346 5.03501193,16.2987827 C5.03501193,13.9511037 6.94152889,12.0476222 9.29273825,12.0476222 C11.6439476,12.0476222 13.5502915,13.9511037 13.5502915,16.2987827 C13.5502915,18.6466346 11.6439476,20.5499432 9.29273825,20.5499432 Z M9.52538386,7.66372099 C7.74471018,7.66372099 6.24688094,8.1214 5.06859322,8.96502963 L5.06859322,0.334288889 L0.0130516959,0.334288889 L0.0130516959,15.3687333 C0.0130516959,21.4094741 4.17211135,24.9336716 9.12621661,24.9336716 C14.0806681,24.9336716 18.4396575,21.5143877 18.4396575,16.2987827 C18.4396575,11.0833506 14.301716,7.66372099 9.52538386,7.66372099 Z M108.67569,20.5499432 C106.324481,20.5499432 104.41831,18.6466346 104.41831,16.2987827 C104.41831,13.9511037 106.324481,12.0476222 108.67569,12.0476222 C111.0269,12.0476222 112.93307,13.9511037 112.93307,16.2987827 C112.93307,18.6466346 111.0269,20.5499432 108.67569,20.5499432 Z M108.67569,7.66372099 C103.899531,7.66372099 99.4955359,11.0833506 99.4955359,16.2987827 C99.4955359,21.5143877 103.899531,24.9336716 108.67569,24.9336716 C113.451676,24.9336716 117.856018,21.5143877 117.856018,16.2987827 C117.856018,11.0833506 113.451676,7.66372099 108.67569,7.66372099 Z M97.3361207,16.1658691 L97.3361207,24.5351037 L92.1474657,24.5351037 L92.1474657,16.1658691 C92.1474657,13.6622889 91.1047149,12.3136222 89.0874143,12.3136222 C87.0699406,12.3136222 86.0273628,13.6622889 86.0273628,16.1658691 L86.0273628,24.5351037 L80.8383616,24.5351037 L80.8383616,16.1658691 C80.8383616,13.6622889 79.7957839,12.3136222 77.7786564,12.3136222 C75.7610096,12.3136222 74.7182587,13.6622889 74.7182587,16.1658691 L74.7182587,24.5351037 L69.5296037,24.5351037 L69.5296037,16.1658691 C69.5296037,10.950437 73.0878353,7.66372099 77.7786564,7.66372099 C80.1875078,7.66372099 82.1206821,8.53258519 83.4331219,10.0822642 C84.7455616,8.53258519 86.6787359,7.66372099 89.0874143,7.66372099 C93.7778891,7.66372099 97.3361207,10.950437 97.3361207,16.1658691 Z M46.8786798,16.2987827 L46.8786798,24.5351037 L41.6900248,24.5351037 L41.6900248,16.6973506 C41.6900248,13.9301901 40.6128271,12.3136222 38.2974494,12.3136222 C35.9813792,12.3136222 34.9047008,13.9301901 34.9047008,16.6973506 L34.9047008,24.5351037 L29.7155265,24.5351037 L29.7155265,16.2987827 C29.7155265,11.0833506 33.0613651,7.66372099 38.2974494,7.66372099 C43.5331874,7.66372099 46.8786798,11.0833506 46.8786798,16.2987827 Z M26.8103991,2.96974568 C26.8103991,4.57870864 25.3942727,5.81641235 23.7292295,5.81641235 C22.0645324,5.81641235 20.6484061,4.57870864 20.6484061,2.96974568 C20.6484061,1.3611284 22.0645324,0.123251852 23.7292295,0.123251852 C25.3942727,0.123251852 26.8103991,1.3611284 26.8103991,2.96974568 Z M21.1348154,24.5354494 L26.3236435,24.5354494 L26.3236435,8.06246173 L21.1348154,8.06246173 L21.1348154,24.5354494 Z M58.1900342,20.5499432 C55.8388248,20.5499432 53.932654,18.6466346 53.932654,16.2987827 C53.932654,13.9511037 55.8388248,12.0476222 58.1900342,12.0476222 C60.5415897,12.0476222 62.4475874,13.9511037 62.4475874,16.2987827 C62.4475874,18.6466346 60.5415897,20.5499432 58.1900342,20.5499432 Z M58.1900342,7.66372099 C53.4142213,7.66372099 49.0098798,11.0833506 49.0098798,16.2987827 C49.0098798,21.5143877 53.4142213,24.9336716 58.1900342,24.9336716 C62.9661932,24.9336716 67.3703616,21.5143877 67.3703616,16.2987827 C67.3703616,11.0833506 62.9661932,7.66372099 58.1900342,7.66372099 Z" id="Fill-1" fill="#FFFFFF" mask="url(#mask-2)"/></g><g id="Group-6" transform="translate(0.000000, 0.049432)"><mask id="mask-4" fill="white"><use xlink:href="#path-3"/></mask><g id="Clip-5"/><path d="M7.72824842,27.3396494 C9.46789754,28.3431556 11.692225,27.7477235 12.6963747,26.0106864 L18.6059888,15.7872296 C19.6099654,14.0505383 19.0139841,11.830242 17.2750274,10.8274272 C15.5355513,9.82443951 13.3110508,10.4195259 12.3069011,12.156563 L6.39746012,22.3800198 C5.39348351,24.1167111 5.9892917,26.3370074 7.72824842,27.3396494 M0.487672982,12.1631309 L6.39711392,1.94001975 C7.40126363,0.202637037 9.62576421,-0.392276543 11.3650671,0.610711111 C13.1043701,1.61335309 13.7001782,3.83399506 12.6962016,5.57068642 L6.7867607,15.7937975 C5.78261099,17.5311802 3.55776421,18.125921 1.81846129,17.1231062 C0.0795045614,16.1202914 -0.516303626,13.8998222 0.487672982,12.1631309" id="Fill-4" fill="#FFDC3C" mask="url(#mask-4)"/></g></g></g></g></g></svg>