<svg width="89" height="93" viewBox="0 0 89 93" fill="none" xmlns="http://www.w3.org/2000/svg"><g clip-path="url(#clip0)"><path d="M25.5018 7.42255H54.1134C58.2186 7.42255 61.5774 10.7813 61.5774 14.8865V79.5736C61.5774 83.6788 58.2186 87.0376 54.1134 87.0376H25.5018C21.3966 87.0376 18.0378 83.6788 18.0378 79.5736V14.8865C18.0377 10.7813 21.3966 7.42255 25.5018 7.42255Z" fill="#35353D"/><path d="M23.0138 18.6183H56.6012C57.2853 18.6183 57.8452 19.1781 57.8452 19.8623V74.5976C57.8452 75.2817 57.2853 75.8416 56.6012 75.8416H23.0138C22.3296 75.8416 21.7698 75.2817 21.7698 74.5976V19.8623C21.7696 19.1781 22.3296 18.6183 23.0138 18.6183Z" fill="black"/><path d="M36.6976 79.5737H42.9176C43.9749 79.5737 44.7835 80.3822 44.7835 81.4396C44.7835 82.4969 43.9749 83.3055 42.9176 83.3055H36.6976C35.6403 83.3055 34.8317 82.4969 34.8317 81.4396C34.8317 80.4443 35.6401 79.5737 36.6976 79.5737ZM36.0757 11.7765H43.5396C44.2238 11.7765 44.7836 12.3363 44.7836 13.0205C44.7836 13.7046 44.2238 14.2645 43.5396 14.2645H36.0757C35.3915 14.2645 34.8317 13.7046 34.8317 13.0205C34.8317 12.3363 35.3914 11.7765 36.0757 11.7765Z" fill="#515158"/><rect x="45.9114" y="22.6118" width="7.43074" height="7.43074" rx="1.32692" fill="#35353D"/><rect x="45.9114" y="32.9618" width="7.43074" height="7.43074" rx="1.32692" fill="#FFDC3C"/><rect x="45.9114" y="62.154" width="7.43074" height="7.43074" rx="1.32692" fill="#35353D"/><rect x="36.0922" y="22.6118" width="7.43074" height="7.43074" rx="1.32692" fill="#35353D"/><rect x="36.0922" y="32.9618" width="7.43074" height="7.43074" rx="1.32692" fill="#35353D"/><rect x="36.0922" y="62.154" width="7.43074" height="7.43074" rx="1.32692" fill="#35353D"/><rect x="26.5383" y="22.6118" width="7.43074" height="7.43074" rx="1.32692" fill="#35353D"/><rect x="26.5383" y="32.9618" width="7.43074" height="7.43074" rx="1.32692" fill="#35353D"/><rect x="26.5383" y="62.154" width="7.43074" height="7.43074" rx="1.32692" fill="#35353D"/></g><path d="M73.2446 5.20502C72.9689 5.20502 72.6929 5.09964 72.4823 4.88913L69.4334 1.84021C69.0124 1.41921 69.0124 0.736759 69.4334 0.315754C69.8544 -0.105251 70.5369 -0.105251 70.9579 0.315754L74.0068 3.36467C74.4278 3.78568 74.4278 4.46813 74.0068 4.88913C73.7963 5.09991 73.5206 5.20502 73.2446 5.20502Z" fill="#FFDC3C"/><path d="M70.1957 5.20502C69.9199 5.20502 69.6439 5.09964 69.4334 4.88913C69.0124 4.46813 69.0124 3.78568 69.4334 3.36467L72.4823 0.315754C72.9034 -0.105251 73.5858 -0.105251 74.0068 0.315754C74.4278 0.736759 74.4278 1.41921 74.0068 1.84021L70.9579 4.88913C70.7474 5.09991 70.4714 5.20502 70.1957 5.20502Z" fill="#FFDC3C"/><path d="M77.1108 18.7742C77.7063 18.7742 78.189 18.2916 78.189 17.6961C78.189 17.1007 77.7063 16.618 77.1108 16.618C76.5154 16.618 76.0327 17.1007 76.0327 17.6961C76.0327 18.2916 76.5154 18.7742 77.1108 18.7742Z" fill="#FFDC3C"/><path d="M67.4077 12.3056C68.0031 12.3056 68.4858 11.8229 68.4858 11.2274C68.4858 10.632 68.0031 10.1493 67.4077 10.1493C66.8123 10.1493 66.3296 10.632 66.3296 11.2274C66.3296 11.8229 66.8123 12.3056 67.4077 12.3056Z" fill="#FFDC3C"/><path d="M6.91499 87.795C6.63926 87.795 6.36326 87.9004 6.15276 88.1109L3.10384 91.1598C2.68283 91.5808 2.68283 92.2632 3.10384 92.6842C3.52485 93.1053 4.20729 93.1053 4.6283 92.6842L7.67722 89.6353C8.09822 89.2143 8.09822 88.5319 7.67722 88.1109C7.46671 87.9001 7.19099 87.795 6.91499 87.795Z" fill="#FFDC3C"/><path d="M3.86607 87.795C3.59034 87.795 3.31434 87.9004 3.10384 88.1109C2.68283 88.5319 2.68283 89.2143 3.10384 89.6353L6.15276 92.6842C6.57376 93.1053 7.25621 93.1053 7.67722 92.6842C8.09822 92.2632 8.09822 91.5808 7.67722 91.1598L4.6283 88.1109C4.41779 87.9001 4.1418 87.795 3.86607 87.795Z" fill="#FFDC3C"/><path d="M10.7812 74.2257C11.3767 74.2257 11.8594 74.7084 11.8594 75.3039C11.8594 75.8993 11.3767 76.382 10.7812 76.382C10.1858 76.382 9.70312 75.8993 9.70312 75.3039C9.70312 74.7084 10.1858 74.2257 10.7812 74.2257Z" fill="#FFDC3C"/><path d="M1.07812 80.6944C1.67355 80.6944 2.15624 81.1771 2.15624 81.7725C2.15624 82.368 1.67355 82.8507 1.07812 82.8507C0.48269 82.8507 0 82.368 0 81.7725C0 81.1771 0.48269 80.6944 1.07812 80.6944Z" fill="#FFDC3C"/><rect x="59.7112" y="26.3272" width="29.1922" height="29.1922" rx="2.65384" fill="#FFDC3C"/><rect x="56.792" y="36.6772" width="4.24614" height="4.24614" transform="rotate(-45 56.792 36.6772)" fill="#FFDC3C"/><path fill-rule="evenodd" clip-rule="evenodd" d="M72.0174 32.3577L67.6264 39.92C66.8804 41.2047 67.3231 42.8472 68.6153 43.5889C69.9077 44.3309 71.5609 43.8906 72.3069 42.6055L76.6979 35.0434C77.4438 33.7587 77.0011 32.1162 75.7088 31.3743C74.4164 30.6324 72.7635 31.0726 72.0174 32.3577ZM76.6981 50.163C75.9519 51.4481 74.2991 51.8883 73.0065 51.1464C71.7145 50.4047 71.2716 48.7622 72.0176 47.4775L76.4088 39.9152C77.1547 38.6301 78.8075 38.1898 80.1001 38.9318C81.3923 39.6737 81.835 41.3162 81.0891 42.6009L76.6981 50.163Z" fill="black"/><defs><clipPath id="clip0"><rect y="7.42255" width="79.6151" height="79.6151" fill="white"/></clipPath></defs></svg>