<?xml version="1.0" encoding="UTF-8"?><!DOCTYPE svg PUBLIC "-//W3C//DTD SVG 1.1//EN" "http://www.w3.org/Graphics/SVG/1.1/DTD/svg11.dtd"><svg xmlns="http://www.w3.org/2000/svg" xmlns:xlink="http://www.w3.org/1999/xlink"><symbol id="youtube_filled-l2" viewBox="0 0 24 24"><path fill-rule="evenodd" clip-rule="evenodd" d="M18.96 4.438c1.874 0 3.393 1.448 3.393 3.234v8.67c0 1.786-1.519 3.234-3.394 3.234-6.281.278-7.767.278-13.92 0-1.873 0-3.393-1.448-3.393-3.234v-8.67c0-1.786 1.52-3.234 3.393-3.234 6.915-.271 7.136-.366 13.92 0Zm-8.65 4.284a.55.55 0 0 0-.833.472v5.626a.55.55 0 0 0 .833.471l4.688-2.812a.55.55 0 0 0 0-.944L10.31 8.722Z"/></symbol></svg>