<svg width="48" height="49" viewBox="0 0 48 49" fill="none" xmlns="http://www.w3.org/2000/svg"><path d="M33.7583 17.6331L37.0764 11.9954C37.2636 11.6794 37.1504 11.2779 36.8325 11.0942C36.5147 10.9106 36.101 11.0174 35.9181 11.3334L32.5565 17.0437C29.9917 15.8948 27.1047 15.2542 24 15.2542C20.8953 15.2542 18.0083 15.8948 15.4435 17.0437L12.0819 11.3334C11.8946 11.0174 11.4853 10.9106 11.1631 11.0942C10.8408 11.2779 10.732 11.6794 10.9192 11.9954L14.2373 17.6331C8.51555 20.6741 4.64009 26.3545 4 33.0044H44C43.3599 26.3545 39.4844 20.674 33.7584 17.6331H33.7583ZM14.8164 27.4949C13.8889 27.4949 13.14 26.756 13.14 25.8505C13.14 24.9408 13.8933 24.2062 14.8164 24.2062C15.7439 24.2062 16.4929 24.9451 16.4929 25.8505C16.4973 26.756 15.7439 27.4949 14.8164 27.4949ZM33.1792 27.4949C32.2517 27.4949 31.5027 26.756 31.5027 25.8505C31.5027 24.9408 32.2561 24.2062 33.1792 24.2062C34.1067 24.2062 34.8557 24.9451 34.8557 25.8505C34.86 26.756 34.1067 27.4949 33.1792 27.4949Z" fill="white"/></svg>