<svg width="48" height="49" viewBox="0 0 48 49" fill="none" xmlns="http://www.w3.org/2000/svg"><path d="M15.8128 12.9883C14.2907 12.5833 12.912 12.0704 11.7193 11.474C11.5744 11.4016 11.4328 11.3282 11.2946 11.2541C13.681 8.87607 16.731 7.16363 20.1427 6.41873C18.7964 7.46331 17.6488 9.01506 16.7416 10.8294C16.4047 11.5032 16.0942 12.2249 15.8128 12.9883Z" fill="white"/><path d="M22.9995 7.14757C21.4158 7.59941 19.8313 9.12208 18.5305 11.7238C18.2632 12.2583 18.0127 12.8302 17.7812 13.4355C19.4098 13.7457 21.1633 13.9387 22.9995 13.9905V7.14757Z" fill="white"/><path d="M24.9995 13.9905V7.14731C26.5836 7.59883 28.1684 9.12159 29.4695 11.7238C29.7368 12.2583 29.9873 12.8302 30.2188 13.4355C28.59 13.7458 26.8362 13.9388 24.9995 13.9905Z" fill="white"/><path d="M22.9995 15.9912C20.9495 15.9365 18.98 15.7147 17.1454 15.3492C16.498 17.6107 16.0926 20.2119 16.014 23.0045H22.9995V15.9912Z" fill="white"/><path d="M14.0133 23.0045C14.0911 20.0851 14.5079 17.3291 15.1957 14.8935C13.591 14.46 12.1195 13.9102 10.8249 13.2629C10.5175 13.1092 10.2176 12.9486 9.92648 12.7813C7.66336 15.6155 6.23848 19.1484 6.02734 23.0045H14.0133Z" fill="white"/><path d="M14.0133 25.0045C14.0911 27.9239 14.5079 30.6799 15.1957 33.1155C13.591 33.549 12.1195 34.0988 10.8249 34.7461C10.5175 34.8998 10.2177 35.0604 9.92654 35.2277C7.66341 32.3935 6.23852 28.8606 6.02735 25.0045H14.0133Z" fill="white"/><path d="M38.0735 35.2277C40.3367 32.3936 41.7616 28.8607 41.9727 25.0045H33.9867C33.9089 27.9239 33.4921 30.6799 32.8043 33.1155C34.409 33.549 35.8805 34.0988 37.1751 34.7461C37.4825 34.8998 37.7824 35.0604 38.0735 35.2277Z" fill="white"/><path d="M31.986 23.0045H24.9995V15.9912C27.05 15.9366 29.0198 15.7147 30.8546 15.3492C31.502 17.6107 31.9074 20.2119 31.986 23.0045Z" fill="white"/><path d="M33.9867 23.0045H41.9727C41.7616 19.1484 40.3367 15.6154 38.0736 12.7813C37.7824 12.9486 37.4825 13.1092 37.1751 13.2629C35.8805 13.9102 34.409 14.46 32.8043 14.8935C33.4921 17.3291 33.9089 20.0851 33.9867 23.0045Z" fill="white"/><path d="M36.7054 11.254C36.5672 11.3282 36.4256 11.4016 36.2807 11.474C35.088 12.0704 33.7093 12.5833 32.1872 12.9883C31.9058 12.2249 31.5953 11.5032 31.2584 10.8294C30.3512 9.01504 29.2036 7.46329 27.8573 6.4187C31.269 7.16359 34.3191 8.87604 36.7054 11.254Z" fill="white"/><path d="M31.986 25.0045C31.9074 27.7971 31.502 30.3983 30.8546 32.6597C29.0198 32.2942 27.05 32.0724 24.9995 32.0178V25.0045H31.986Z" fill="white"/><path d="M22.9995 32.0178C20.9495 32.0725 18.98 32.2943 17.1454 32.6597C16.498 30.3983 16.0926 27.7971 16.014 25.0045H22.9995V32.0178Z" fill="white"/><path d="M22.9995 34.0185V40.8614C21.4158 40.4096 19.8313 38.8869 18.5305 36.2852C18.2632 35.7507 18.0127 35.1788 17.7812 34.5735C19.4098 34.2633 21.1633 34.0703 22.9995 34.0185Z" fill="white"/><path d="M24.9995 40.8617V34.0185C26.8362 34.0702 28.59 34.2632 30.2188 34.5735C29.9873 35.1788 29.7368 35.7507 29.4695 36.2852C28.1684 38.8874 26.5836 40.4102 24.9995 40.8617Z" fill="white"/><path d="M27.8575 41.5901C29.2037 40.5455 30.3513 38.9939 31.2584 37.1796C31.5953 36.5058 31.9058 35.7841 32.1872 35.0207C33.7093 35.4257 35.088 35.9386 36.2807 36.535C36.4256 36.6074 36.5672 36.6807 36.7054 36.7549C34.3191 39.1328 31.2691 40.8452 27.8575 41.5901Z" fill="white"/><path d="M20.1424 41.5901C16.7309 40.8452 13.681 39.1328 11.2947 36.7549C11.4329 36.6807 11.5744 36.6074 11.7193 36.535C12.912 35.9386 14.2907 35.4257 15.8128 35.0207C16.0942 35.7841 16.4047 36.5058 16.7416 37.1796C17.6487 38.9938 18.7963 40.5455 20.1424 41.5901Z" fill="white"/></svg>