<?xml version="1.0" encoding="UTF-8"?><!DOCTYPE svg PUBLIC "-//W3C//DTD SVG 1.1//EN" "http://www.w3.org/Graphics/SVG/1.1/DTD/svg11.dtd"><svg xmlns="http://www.w3.org/2000/svg" xmlns:xlink="http://www.w3.org/1999/xlink"><symbol id="forward-circle_filled-l2" viewBox="0 0 24 24"><path d="M20.597 11.056a1.308 1.308 0 0 1 0 1.888l-5.833 5.665a1.404 1.404 0 0 1-1.944 0 1.308 1.308 0 0 1 0-1.888l3.486-3.386-11.931.067c-.76 0-1.375-.598-1.375-1.335 0-.738.616-1.335 1.375-1.335l11.931-.069L12.82 7.28a1.308 1.308 0 0 1 0-1.888 1.404 1.404 0 0 1 1.944 0l5.833 5.665Z"/></symbol></svg>