<svg width="32" height="32" viewBox="0 0 32 32" fill="none" xmlns="http://www.w3.org/2000/svg"><path d="M9.31891 18.5036L8.4835 21.6223L5.43011 21.6869C4.51759 19.9944 4 18.0579 4 16.0001C4 14.0102 4.48394 12.1337 5.34175 10.4814H5.34241L8.06078 10.9798L9.25159 13.6819C9.00236 14.4085 8.86652 15.1885 8.86652 16.0001C8.86661 16.881 9.02617 17.725 9.31891 18.5036Z" fill="#FBBB00"/><path d="M27.7902 13.7583C27.928 14.4842 27.9999 15.2339 27.9999 16.0001C27.9999 16.8592 27.9095 17.6972 27.7375 18.5056C27.1533 21.2563 25.6269 23.6583 23.5124 25.3581L23.5118 25.3574L20.0878 25.1827L19.6032 22.1576C21.0063 21.3348 22.1028 20.0471 22.6804 18.5056H16.2637V13.7583H22.774H27.7902Z" fill="#518EF8"/><path d="M23.5114 25.3572L23.5121 25.3579C21.4556 27.0109 18.8433 27.9999 15.9996 27.9999C11.4297 27.9999 7.45652 25.4456 5.42969 21.6867L9.31848 18.5034C10.3319 21.208 12.9409 23.1333 15.9996 23.1333C17.3143 23.1333 18.546 22.7779 19.6029 22.1575L23.5114 25.3572Z" fill="#28B446"/><path d="M23.6596 6.76262L19.7721 9.94525C18.6783 9.26153 17.3853 8.86656 16 8.86656C12.8721 8.86656 10.2143 10.8802 9.25169 13.6818L5.34245 10.4813H5.3418C7.33895 6.63077 11.3622 4 16 4C18.9117 4 21.5814 5.03716 23.6596 6.76262Z" fill="#F14336"/></svg>