<?xml version="1.0" encoding="UTF-8"?><!DOCTYPE svg PUBLIC "-//W3C//DTD SVG 1.1//EN" "http://www.w3.org/Graphics/SVG/1.1/DTD/svg11.dtd"><svg xmlns="http://www.w3.org/2000/svg" xmlns:xlink="http://www.w3.org/1999/xlink"><symbol id="hide_filled-l2" viewBox="0 0 24 24"><path opacity=".4" d="M12 15a4 4 0 1 1 0-8 4 4 0 0 1 0 8Z"/><path fill-rule="evenodd" clip-rule="evenodd" d="M22.765 3.356a1 1 0 0 0-1.41-.12l-19 16a1 1 0 0 0 1.29 1.529L7.07 17.88A11.51 11.51 0 0 0 12 19c5.69 0 9.353-4.214 10.532-5.79a2.067 2.067 0 0 0 .41-.757 1.84 1.84 0 0 0 .001-.907 2.066 2.066 0 0 0-.384-.721l-.027-.035-.8.599m0 0 .8-.6a16.406 16.406 0 0 0-3.214-3.223l3.326-2.801a1 1 0 0 0 .12-1.41m-5.023 5.539a14.293 14.293 0 0 1 3.19 3.094l.01.012-.01.012C19.824 13.492 16.681 17 12 17a9.37 9.37 0 0 1-3.21-.568l1.078-.908a5 5 0 0 0 6.953-5.855l.92-.775Zm-2.748 2.314-3.298 2.777a3 3 0 0 0 3.297-2.777ZM8.128 7.836a4.98 4.98 0 0 0-1.084 3.83 1 1 0 1 0 1.982-.265 3 3 0 0 1 3.724-3.307 1 1 0 0 0 .931-.236l1-.93a1 1 0 0 0-.487-1.713A11.285 11.285 0 0 0 12 5C6.31 5 2.647 9.214 1.467 10.79l-.026.035a2.051 2.051 0 0 0-.384.721 1.84 1.84 0 0 0 0 .908 2.067 2.067 0 0 0 .41.756 16.517 16.517 0 0 0 1.993 2.204 1 1 0 1 0 1.357-1.469 14.528 14.528 0 0 1-1.748-1.933L3.059 12l.01-.012c.766-1.024 2.507-3.02 5.06-4.152Z"/></symbol></svg>