<svg xmlns="http://www.w3.org/2000/svg" xmlns:xlink="http://www.w3.org/1999/xlink" width="48px" height="36px" viewBox="0 0 48 36" version="1.1"><!--Generator: Sketch 46.2 (44496) - http://www.bohemiancoding.com/sketch--><title>Group 9</title><desc>Created with Sketch.</desc><defs/><g id="Flags" stroke="none" stroke-width="1" fill="none" fill-rule="evenodd"><g id="Group-9"><path d="M48,12 L0,12 L0,2 C0,0.895 0.895,0 2,0 L46,0 C47.105,0 48,0.895 48,2 L48,12 Z" id="Fill-160" fill="#FD9840"/><polygon id="Fill-161" fill="#E6E6E6" points="0 12 48 12 48 24 0 24"/><path d="M48,34 C48,35.105 47.105,36 46,36 L2,36 C0.895,36 0,35.105 0,34 L0,24 L48,24 L48,34 Z" id="Fill-162" fill="#1B8717"/><path d="M24,20 C22.896,20 22,19.105 22,18 C22,16.895 22.896,16 24,16 C25.104,16 26,16.895 26,18 C26,19.105 25.104,20 24,20 M24,14 C21.791,14 20,15.791 20,18 C20,20.209 21.791,22 24,22 C26.209,22 28,20.209 28,18 C28,15.791 26.209,14 24,14" id="Fill-163" fill="#11188A"/></g></g></svg>