<svg width="32" height="32" viewBox="0 0 32 32" fill="none" xmlns="http://www.w3.org/2000/svg"><path fill-rule="evenodd" clip-rule="evenodd" d="M15.5946 4C22.5394 4 28.1892 8.585 28.1892 14.2195C28.1892 16.4718 27.3145 18.507 25.4894 20.5079C22.8475 23.55 16.9392 27.2556 15.5946 27.821C14.2861 28.3713 14.4388 27.5084 14.4991 27.1679C14.5008 27.1586 14.5023 27.1496 14.5038 27.1411C14.5357 26.9522 14.6833 26.0633 14.6833 26.0633C14.7258 25.7422 14.7694 25.2428 14.6419 24.9241C14.5015 24.5735 13.9431 24.3917 13.5323 24.3032C7.48584 23.504 3 19.2719 3 14.2195C3 8.585 8.6498 4 15.5946 4ZM19.1207 11.4961H18.2283C18.1656 11.4961 18.1056 11.521 18.0613 11.5652C18.017 11.6095 17.9922 11.6696 17.9922 11.7322V14.9974L15.4777 11.6011C15.472 11.5922 15.4653 11.5838 15.4577 11.5764L15.4435 11.5622L15.4305 11.5516H15.4234L15.4104 11.5421H15.4034L15.3904 11.535H14.3905C14.3279 11.535 14.2678 11.5599 14.2236 11.6042C14.1793 11.6485 14.1544 11.7085 14.1544 11.7711V17.2675C14.1544 17.3301 14.1793 17.3901 14.2236 17.4344C14.2678 17.4787 14.3279 17.5036 14.3905 17.5036H15.2841C15.3467 17.5036 15.4068 17.4787 15.4511 17.4344C15.4954 17.3901 15.5202 17.3301 15.5202 17.2675V13.9704L18.0382 17.3702C18.0547 17.3943 18.0755 17.4151 18.0996 17.4316L18.1138 17.441H18.1692C18.1901 17.4462 18.2115 17.4489 18.233 17.4493H19.1207C19.1833 17.4493 19.2434 17.4244 19.2877 17.3801C19.3319 17.3358 19.3568 17.2758 19.3568 17.2132V11.7369C19.3574 11.7055 19.3518 11.6743 19.3402 11.6451C19.3286 11.6159 19.3113 11.5893 19.2893 11.5669C19.2674 11.5445 19.2411 11.5267 19.2122 11.5145C19.1832 11.5023 19.1521 11.4961 19.1207 11.4961ZM12.1476 11.4961H13.04C13.173 11.4961 13.2808 11.6039 13.2808 11.7369V17.2332C13.2808 17.3662 13.173 17.4741 13.04 17.4741H12.1476C12.0146 17.4741 11.9068 17.3662 11.9068 17.2332V11.7369C11.9068 11.6039 12.0146 11.4961 12.1476 11.4961ZM23.9985 17.4741H20.457C20.3944 17.4741 20.3343 17.4492 20.2901 17.4049C20.2458 17.3606 20.2209 17.3006 20.2209 17.238V11.7369C20.2209 11.6743 20.2458 11.6142 20.2901 11.57C20.3343 11.5257 20.3944 11.5008 20.457 11.5008H23.9985C24.0611 11.5008 24.1211 11.5257 24.1654 11.57C24.2097 11.6142 24.2346 11.6743 24.2346 11.7369V12.6305C24.2346 12.6931 24.2097 12.7532 24.1654 12.7975C24.1211 12.8418 24.0611 12.8666 23.9985 12.8666H21.5938V13.7933H23.9985C24.0611 13.7933 24.1211 13.8182 24.1654 13.8625C24.2097 13.9067 24.2346 13.9668 24.2346 14.0294V14.9372C24.2346 14.9998 24.2097 15.0599 24.1654 15.1041C24.1211 15.1484 24.0611 15.1733 23.9985 15.1733H21.5938V16.1012H23.9985C24.0611 16.1012 24.1211 16.126 24.1654 16.1703C24.2097 16.2146 24.2346 16.2746 24.2346 16.3373V17.2297C24.2357 17.2614 24.2304 17.293 24.219 17.3226C24.2076 17.3522 24.1904 17.3792 24.1684 17.402C24.1464 17.4248 24.12 17.443 24.0908 17.4553C24.0616 17.4677 24.0302 17.4741 23.9985 17.4741ZM10.9104 17.4741C10.973 17.4741 11.0331 17.4492 11.0774 17.4049C11.1217 17.3606 11.1465 17.3006 11.1465 17.238V16.3455C11.1465 16.2829 11.1217 16.2228 11.0774 16.1786C11.0331 16.1343 10.973 16.1094 10.9104 16.1094H8.50578V11.7416C8.50578 11.679 8.48091 11.619 8.43663 11.5747C8.39235 11.5304 8.3323 11.5055 8.26968 11.5055H7.37723C7.31462 11.5055 7.25457 11.5304 7.21029 11.5747C7.16602 11.619 7.14114 11.679 7.14114 11.7416V17.2344C7.14114 17.297 7.16602 17.3571 7.21029 17.4014C7.25457 17.4456 7.31462 17.4705 7.37723 17.4705H10.9187L10.9104 17.4741Z" fill="white"/></svg>