<svg width="52" height="53" viewBox="0 0 52 53" fill="none" xmlns="http://www.w3.org/2000/svg"><path d="M27.7922 25.5249C26.2003 27.2245 23.9605 27.9882 21.6654 27.9882C19.3736 27.9882 17.107 27.2275 15.5215 25.5249C13.0626 22.8962 12.7545 18.8591 12.7792 16.763C12.7875 16.0643 12.8327 15.5812 12.8476 15.4379C12.8725 14.9319 12.9241 14.457 12.9987 14.0112C13.4838 11.1131 14.9419 9.44574 16.3443 8.49473C16.5755 8.33797 16.8052 8.20068 17.0287 8.08055C18.0941 7.50522 19.2754 7.17052 20.4772 7.03913C20.7587 7.00835 21.0413 6.98873 21.3238 6.97978C21.4183 6.97679 21.5127 6.97499 21.607 6.97437L21.6824 6.97412C23.0864 6.97412 24.5146 7.2569 25.7963 7.84303C25.9793 7.92676 26.1594 8.01668 26.336 8.11285C27.9965 9.01384 29.9863 10.8802 30.404 14.6568C30.4318 14.9086 30.4527 15.1688 30.466 15.4379C30.5256 16.0113 31.0706 22.0199 27.7922 25.5249Z" fill="#FFDD3C"/><path d="M7.82418 31.9366C9.65302 31.0395 12.0704 30.183 15.0763 29.3671C17.0972 30.6876 19.448 31.2382 21.6654 31.2382C23.8972 31.2382 26.2313 30.6807 28.2413 29.3636C31.2533 30.1805 33.675 31.0382 35.5065 31.9366C38.7034 33.5048 39.2353 39.1786 38.9198 41.6408C33.9949 44.6671 27.3117 45.8904 21.6673 45.9737H21.6634C16.1158 45.9761 9.2682 44.6255 4.41098 41.6408C4.0954 39.1786 4.62734 33.5048 7.82418 31.9366Z" fill="#FFDD3C"/><path d="M29.3735 27.0061C29.2877 27.0977 29.2006 27.1871 29.1122 27.2743C29.1605 27.3158 29.2094 27.3564 29.2588 27.3961C30.8938 27.8504 32.3778 28.3236 33.7036 28.8184C35.5257 28.7913 37.2948 28.1522 38.5601 26.7667C41.2238 23.8458 40.781 18.8385 40.7326 18.3607C40.7218 18.1365 40.7048 17.9196 40.6822 17.7098C40.3428 14.5625 38.7261 13.0072 37.377 12.2564C37.2335 12.1763 37.0872 12.1013 36.9384 12.0316C35.8971 11.5431 34.7366 11.3075 33.5959 11.3075L33.5347 11.3077C33.458 11.3082 33.3813 11.3097 33.3046 11.3122C33.075 11.3196 32.8454 11.336 32.6167 11.3616C32.3701 11.3893 32.1246 11.4277 31.8814 11.4775C32.2 12.3426 32.436 13.3189 32.5576 14.4187C32.5884 14.697 32.6117 14.9821 32.6271 15.274C32.6741 15.7551 32.8124 17.522 32.5288 19.6661C32.2369 21.8738 31.4587 24.7768 29.3735 27.0061Z" fill="#FFDD3C"/><path d="M41.1654 41.6408C41.1654 41.6408 46.4759 40.2238 47.6654 39.4741C47.6654 39.4741 47.137 34.1513 44.828 32.1098C42.7972 30.3142 38.925 29.9655 38.925 29.9655C38.4955 30.2542 38.0477 30.4991 37.5881 30.7033C39.3012 32.0575 40.1792 34.1617 40.629 35.915C41.1907 38.1043 41.3578 40.1391 41.1654 41.6408Z" fill="#FFDD3C"/></svg>