<?xml version="1.0" encoding="UTF-8"?><!DOCTYPE svg PUBLIC "-//W3C//DTD SVG 1.1//EN" "http://www.w3.org/Graphics/SVG/1.1/DTD/svg11.dtd"><svg xmlns="http://www.w3.org/2000/svg" xmlns:xlink="http://www.w3.org/1999/xlink"><symbol id="show_filled-l2" viewBox="0 0 24 24"><path opacity=".4" d="M12 15a4 4 0 1 0 0-8 4 4 0 0 0 0 8Z"/><path fill-rule="evenodd" clip-rule="evenodd" d="M8.128 7.836c-2.552 1.132-4.293 3.128-5.06 4.152L3.06 12l.009.012C4.176 13.492 7.319 17 12 17c4.682 0 7.824-3.508 8.931-4.988l.01-.012-.01-.012c-.766-1.024-2.507-3.02-5.06-4.152a5 5 0 1 1-7.743 0Zm-5.1 4.121Zm-1.56-1.168C2.646 9.215 6.31 5 12 5s9.353 4.214 10.532 5.79a2.067 2.067 0 0 1 .41.757 1.84 1.84 0 0 1 .001.907c-.09.333-.268.568-.384.721l-.027.035C21.354 14.787 17.69 19 12 19s-9.353-4.214-10.533-5.79a2.067 2.067 0 0 1-.41-.757 1.84 1.84 0 0 1 0-.907 2.067 2.067 0 0 1 .41-.756l.787.588-.787-.588ZM12 8a3 3 0 1 0 0 6 3 3 0 0 0 0-6Z"/></symbol></svg>