<svg width="52" height="53" viewBox="0 0 52 53" fill="none" xmlns="http://www.w3.org/2000/svg"><path d="M39.2426 15.4856C39.2426 15.4856 43.2902 14.3659 43.9172 10.8097C44.5443 7.25344 41.1237 4.81689 41.1237 4.81689C41.1237 4.81689 37.0762 5.9366 36.4491 9.49285C35.822 13.0491 39.2426 15.4856 39.2426 15.4856Z" fill="#FFDD3C"/><path d="M48.6281 24.5996C46.3069 27.3659 42.2418 26.3118 42.2418 26.3118C42.2418 26.3118 40.4978 22.4914 42.8189 19.7252C45.1401 16.9589 49.2053 18.013 49.2053 18.013C49.2053 18.013 50.9493 21.8334 48.6281 24.5996Z" fill="#FFDD3C"/><path d="M39.8368 37.9876C39.8368 37.9876 43.2963 40.3685 46.4236 38.563C49.5509 36.7574 49.2188 32.5709 49.2188 32.5709C49.2188 32.5709 45.7593 30.19 42.632 31.9956C39.5047 33.8011 39.8368 37.9876 39.8368 37.9876Z" fill="#FFDD3C"/><path d="M28.7256 44.216C28.7256 44.216 29.9859 48.2221 33.5619 48.7246C37.1379 49.2272 39.4535 45.7237 39.4535 45.7237C39.4535 45.7237 38.1933 41.7177 34.6173 41.2151C31.0413 40.7125 28.7256 44.216 28.7256 44.216Z" fill="#FFDD3C"/><path d="M18.4362 48.7246C22.0122 48.2221 23.2725 44.216 23.2725 44.216C23.2725 44.216 20.9568 40.7125 17.3808 41.2151C13.8048 41.7177 12.5446 45.7237 12.5446 45.7237C12.5446 45.7237 14.8602 49.2272 18.4362 48.7246Z" fill="#FFDD3C"/><path d="M12.1613 37.9876C12.1613 37.9876 8.70178 40.3685 5.57446 38.563C2.44715 36.7574 2.77932 32.5709 2.77932 32.5709C2.77932 32.5709 6.23881 30.19 9.36613 31.9956C12.4934 33.8011 12.1613 37.9876 12.1613 37.9876Z" fill="#FFDD3C"/><path d="M3.36998 24.5996C5.69116 27.3659 9.75633 26.3118 9.75633 26.3118C9.75633 26.3118 11.5003 22.4914 9.17915 19.7252C6.85797 16.9589 2.7928 18.013 2.7928 18.013C2.7928 18.013 1.0488 21.8334 3.36998 24.5996Z" fill="#FFDD3C"/><path d="M12.7555 15.4856C12.7555 15.4856 8.70794 14.3659 8.08088 10.8097C7.45382 7.25344 10.8743 4.81689 10.8743 4.81689C10.8743 4.81689 14.9219 5.9366 15.549 9.49285C16.1761 13.0491 12.7555 15.4856 12.7555 15.4856Z" fill="#FFDD3C"/><path d="M26.8417 14.9846C26.5764 14.1681 25.4213 14.1681 25.156 14.9846L23.0359 21.5096C22.9173 21.8747 22.577 22.1219 22.1931 22.1219H15.3323C14.4738 22.1219 14.1169 23.2205 14.8114 23.7251L20.3619 27.7578C20.6725 27.9834 20.8025 28.3834 20.6838 28.7486L18.5637 35.2736C18.2984 36.09 19.2329 36.769 19.9275 36.2644L25.4779 32.2317C25.7886 32.0061 26.2092 32.0061 26.5198 32.2317L32.0702 36.2644C32.7648 36.769 33.6993 36.09 33.434 35.2736L31.3139 28.7486C31.1952 28.3834 31.3252 27.9834 31.6358 27.7578L37.1863 23.7251C37.8808 23.2205 37.5239 22.1219 36.6654 22.1219H29.8046C29.4207 22.1219 29.0804 21.8747 28.9618 21.5096L26.8417 14.9846Z" fill="#FFDD3C"/></svg>