<svg width="22" height="22" viewBox="0 0 22 22" fill="none" xmlns="http://www.w3.org/2000/svg">
<path fill-rule="evenodd" clip-rule="evenodd" d="M11 0C17.0751 0 22 4.92487 22 11C22 16.486 17.984 21.034 12.7315 21.8645C12.3522 21.9345 11.9645 21.9797 11.5684 22H1.22443C0.584944 22 0.0665371 21.4816 0.0665371 20.8421C0.0665371 20.5827 0.153669 20.3307 0.313958 20.1267L2.24829 17.6649C0.837693 15.8154 0 13.5055 0 11C0 4.92487 4.92487 0 11 0ZM11.0008 14.6862H10.986C10.2179 14.6987 9.61281 15.3254 9.62518 16.0846C9.63893 16.8359 10.2503 17.4362 11 17.4362H11.0148C11.7833 17.4223 12.3885 16.7959 12.3748 16.0368C12.3624 15.2873 11.7503 14.6862 11.0008 14.6862ZM11 4.51121C8.92678 4.51121 7.15 6.22235 7.15 8.2166C7.15 8.82412 7.64249 9.3166 8.25 9.3166C8.85751 9.3166 9.35 8.82412 9.35 8.2166C9.35 7.45052 10.1298 6.71121 11 6.71121C11.9735 6.71121 12.65 7.34142 12.65 8.2166C12.65 8.76641 12.4736 9.03615 11.7303 9.57371C11.6759 9.61289 11.6759 9.61289 11.5833 9.67925C11.4879 9.74759 11.4879 9.74759 11.4301 9.7891C10.3373 10.5786 9.9 11.2261 9.9 12.2506C9.9 12.8581 10.3925 13.3506 11 13.3506C11.6075 13.3506 12.1 12.8581 12.1 12.2506C12.1 12.0754 12.195 11.9506 12.7184 11.5725C12.772 11.5339 12.772 11.5339 12.87 11.4638C12.9608 11.3986 12.9608 11.3986 13.0197 11.3563C14.3191 10.4164 14.85 9.56364 14.85 8.2166C14.85 6.10312 13.1687 4.51121 11 4.51121Z" fill="white"/>
</svg>
