<?xml version="1.0" encoding="UTF-8"?><!DOCTYPE svg PUBLIC "-//W3C//DTD SVG 1.1//EN" "http://www.w3.org/Graphics/SVG/1.1/DTD/svg11.dtd"><svg xmlns="http://www.w3.org/2000/svg" xmlns:xlink="http://www.w3.org/1999/xlink"><symbol id="warning_filled-l1" viewBox="0 0 16 16"><path opacity=".4" d="m1.796 11.563 4.078-8.149c.684-1.368 1.026-2.051 1.49-2.27.402-.192.87-.192 1.273 0 .463.219.805.902 1.49 2.27l4.077 8.149c.57 1.138.854 1.707.786 2.17-.06.403-.283.765-.618.999-.384.268-1.02.268-2.294.268H3.922c-1.273 0-1.91 0-2.294-.268a1.485 1.485 0 0 1-.618-1c-.068-.462.216-1.031.786-2.17Z"/><path fill-rule="evenodd" clip-rule="evenodd" d="M8 4.75a.75.75 0 0 1 .75.75v3a.75.75 0 0 1-1.5 0v-3A.75.75 0 0 1 8 4.75Zm0 6a.75.75 0 0 1 .75.75v.5a.75.75 0 1 1-1.5 0v-.5a.75.75 0 0 1 .75-.75Z"/></symbol></svg>