<?xml version="1.0" encoding="utf-8"?>
<!-- Generator: Adobe Illustrator 28.0.0, SVG Export Plug-In . SVG Version: 6.00 Build 0)  -->
<svg version="1.1" id="Layer_1" xmlns="http://www.w3.org/2000/svg" xmlns:xlink="http://www.w3.org/1999/xlink" x="0px" y="0px"
	 viewBox="0 0 148 28" style="enable-background:new 0 0 148 28;" xml:space="preserve">
<style type="text/css">
	.st0{fill:#FFFFFF;}
	.st1{fill:#FFDC3C;}
	.st2{enable-background:new    ;}
</style>
<rect x="61.2" y="12.1" class="st0" width="3.8" height="12.1"/>
<path class="st0" d="M63.1,6.3c-1.2,0-2.3,0.9-2.3,2.1s1,2.1,2.3,2.1s2.3-0.9,2.3-2.1S64.3,6.3,63.1,6.3z"/>
<path class="st0" d="M52.7,11.8c-1.3,0-2.4,0.4-3.3,1V6.5h-3.7v11c0,4.4,3,7,6.7,7c3.6,0,6.8-2.5,6.8-6.3S56.2,11.8,52.7,11.8
	L52.7,11.8z M52.5,21.3c-1.7,0-3.1-1.4-3.1-3.1s1.4-3.1,3.1-3.1s3.1,1.4,3.1,3.1S54.2,21.3,52.5,21.3z"/>
<path class="st0" d="M88.3,11.8c-3.5,0-6.7,2.5-6.7,6.3s3.2,6.4,6.7,6.4S95,22,95,18.2S91.8,11.8,88.3,11.8z M88.3,21.3
	c-1.7,0-3.1-1.4-3.1-3.1s1.4-3.1,3.1-3.1c1.7,0,3.1,1.4,3.1,3.1S90,21.3,88.3,21.3z"/>
<path class="st0" d="M73.8,11.8c-3.9,0-6.3,2.5-6.3,6.3v6.1h3.8v-5.8c0-2,0.8-3.2,2.5-3.2c1.7,0,2.5,1.2,2.5,3.2v5.8h3.8v-6
	C80,14.4,77.6,11.8,73.8,11.8L73.8,11.8z"/>
<path class="st0" d="M125.3,11.8c-3.5,0-6.7,2.5-6.7,6.3s3.2,6.4,6.7,6.4s6.7-2.5,6.7-6.3S128.8,11.8,125.3,11.8z M125.3,21.3
	c-1.7,0-3.1-1.4-3.1-3.1s1.4-3.1,3.1-3.1c1.7,0,3.1,1.4,3.1,3.1S127,21.3,125.3,21.3z"/>
<path class="st0" d="M111,11.8c-1.8,0-3.2,0.7-4.2,1.8c-1-1.1-2.4-1.8-4.2-1.8c-3.4,0-6.1,2.4-6.1,6.2v6.1h3.8v-6.1
	c0-1.8,0.8-2.8,2.3-2.8s2.3,1,2.3,2.8v6.1h3.8v-6.1c0-1.8,0.8-2.8,2.3-2.8s2.3,1,2.3,2.8v6.1h3.8v-6.1C117,14.3,114.4,11.8,111,11.8
	L111,11.8z"/>
<path class="st1" d="M23.5,15.8l5.6-9.7c1-1.7,0.4-3.7-1.2-4.7s-3.7-0.4-4.7,1.2l-5.6,9.7c-1,1.7-0.4,3.7,1.2,4.7
	C20.5,18,22.5,17.5,23.5,15.8z"/>
<path class="st1" d="M33.5,11.1c-1.7-1-3.7-0.4-4.7,1.2l-5.6,9.7c-1,1.7-0.4,3.7,1.2,4.7s3.7,0.4,4.7-1.2l5.6-9.7
	C35.7,14.1,35.1,12.1,33.5,11.1z"/>
<g class="st2">
	<path class="st0" d="M96.3,4.9h1.6v2.1c0,1.5-1,2.4-2.3,2.4c-1.4,0-2.3-0.9-2.3-2.4V4.9h1.6v2.3c0,0.5,0.3,0.8,0.7,0.8
		c0.4,0,0.7-0.3,0.7-0.8L96.3,4.9L96.3,4.9z"/>
	<path class="st0" d="M100.3,9.2h-1.6V7.1c0-1.5,1-2.4,2.3-2.4s2.3,0.9,2.3,2.4v2.1h-1.6V6.9c0-0.5-0.3-0.8-0.7-0.8
		c-0.4,0-0.7,0.3-0.7,0.8L100.3,9.2L100.3,9.2z"/>
	<path class="st0" d="M103.8,7.1c0-1.3,1.1-2.3,2.5-2.3c1.4,0,2.5,1,2.5,2.3s-1.1,2.3-2.5,2.3C104.8,9.3,103.8,8.4,103.8,7.1z
		 M107.2,7.1c0-0.5-0.4-1-0.8-1c-0.5,0-0.8,0.4-0.8,0.9s0.4,1,0.9,1C106.8,8,107.2,7.6,107.2,7.1z"/>
	<path class="st0" d="M111,4.9h1.2v1.2H111v3.1h-1.7V4.9c0-1.1,0.7-1.8,1.8-1.8c0.7,0,1.1,0.1,1.4,0.2l-0.2,1.2
		c-0.3-0.1-0.5-0.1-0.8-0.1C111.2,4.4,111.1,4.5,111,4.9z"/>
	<path class="st0" d="M114.4,4.9h1.2v1.2h-1.2v3.1h-1.7V4.9c0-1.1,0.7-1.8,1.8-1.8c0.7,0,1.1,0.1,1.4,0.2l-0.2,1.2
		c-0.3-0.1-0.5-0.1-0.8-0.1C114.6,4.4,114.4,4.5,114.4,4.9z"/>
	<path class="st0" d="M116.1,3.8c0-0.5,0.4-0.8,0.8-0.8c0.5,0,0.8,0.4,0.8,0.8s-0.4,0.8-0.8,0.8C116.4,4.6,116.1,4.3,116.1,3.8z
		 M116.1,9.2V4.9h1.6v4.3H116.1z"/>
	<path class="st0" d="M118.3,7.1c0-1.4,1.1-2.3,2.5-2.3c0.7,0,1.4,0.2,1.8,0.8l-1,0.9c-0.2-0.3-0.5-0.4-0.8-0.4
		c-0.5,0-0.9,0.4-0.9,1s0.4,1,0.9,1c0.3,0,0.5-0.1,0.8-0.4l1,0.9c-0.5,0.6-1.1,0.8-1.8,0.8C119.4,9.3,118.3,8.4,118.3,7.1z"/>
	<path class="st0" d="M123.1,3.8c0-0.5,0.4-0.8,0.8-0.8s0.8,0.4,0.8,0.8s-0.4,0.8-0.8,0.8C123.4,4.6,123.1,4.3,123.1,3.8z
		 M123.1,9.2V4.9h1.6v4.3H123.1z"/>
	<path class="st0" d="M130.3,7.1v2.1H129l-0.1-0.5c-0.3,0.4-0.7,0.6-1.3,0.6c-1.2,0-2.3-0.9-2.3-2.2c0-1.4,1.1-2.3,2.5-2.3
		C129.3,4.7,130.3,5.8,130.3,7.1z M128.7,7.1c0-0.5-0.4-1-0.8-1c-0.5,0-0.8,0.4-0.8,1c0,0.6,0.4,1,0.9,1
		C128.3,8,128.7,7.6,128.7,7.1z"/>
	<path class="st0" d="M131,9.2V3.5h1.6v5.8L131,9.2L131,9.2z"/>
</g>
</svg>
