<svg xmlns="http://www.w3.org/2000/svg" xmlns:xlink="http://www.w3.org/1999/xlink"><symbol id="telegram_filled-l2" viewBox="0 0 24 24"><path d="M19.998 5.125c0 .054-.003.11-.01.167l-2.084 13.63a1.29 1.29 0 0 1-.534.87c-.406.281-.93.276-1.33-.01l-5.862-4.19c-.424-.303-.476-.947-.105-1.321L14.79 9.5a.362.362 0 0 0 .057-.428.316.316 0 0 0-.462-.117l-6.49 4.32a3.02 3.02 0 0 1-2.709.403l-2.708-.904A.723.723 0 0 1 2 12.082c0-.146.04-.283.114-.4a.688.688 0 0 1 .3-.265l16.124-7.329a1.01 1.01 0 0 1 1.196.287c.173.205.266.471.266.745l-.002.005Z"/></symbol></svg>