<svg xmlns="http://www.w3.org/2000/svg"><symbol id="address-l2" viewBox="0 0 24 24"><path d="M12 6.578a3.71 3.71 0 00-3.706 3.705A3.71 3.71 0 0012 13.99a3.71 3.71 0 003.705-3.706A3.71 3.71 0 0012 6.578zm0 6.414a2.712 2.712 0 01-2.709-2.709A2.712 2.712 0 0112 7.575a2.712 2.712 0 012.709 2.708 2.712 2.712 0 01-2.71 2.709z"/><path d="M12 4a6.29 6.29 0 00-6.283 6.283c0 1.998 1.676 4.975 2.675 6.572a28.491 28.491 0 001.988 2.815C11.383 20.897 11.743 21 12 21c.262 0 .601-.103 1.601-1.331a29.358 29.358 0 001.99-2.813c1.006-1.6 2.693-4.583 2.693-6.573A6.29 6.29 0 0012 4zm2.9 12.08c-1.289 2.092-2.472 3.505-2.906 3.866-.435-.35-1.6-1.73-2.906-3.86-1.509-2.46-2.374-4.574-2.374-5.803A5.293 5.293 0 0112 4.997a5.293 5.293 0 015.287 5.286c0 1.222-.87 3.334-2.387 5.797z"/></symbol></svg>