<svg xmlns="http://www.w3.org/2000/svg"><symbol id="attention-l3" viewBox="0 0 64 64"><path fill-rule="evenodd" clip-rule="evenodd" d="M32 6C17.64 6 6 17.64 6 32s11.64 26 26 26 26-11.64 26-26S46.36 6 32 6zM2 32C2 15.431 15.431 2 32 2c16.569 0 30 13.431 30 30 0 16.569-13.431 30-30 30C15.431 62 2 48.569 2 32zm28.959-12.154v.005a.08.08 0 010-.005zm2.083.023l-.001.004.001-.005zm-1.07-3.386c2.132-.03 2.993 1.984 2.993 3.46 0 .04 0 .08-.003.118l-.966 16.553a2 2 0 01-3.993 0l-.965-16.526a1.97 1.97 0 01-.003-.116c0-1.48.847-3.46 2.936-3.489zm-2.455 27.532a2 2 0 012-2h.966a2 2 0 012 2v1.502a2 2 0 01-2 2h-.966a2 2 0 01-2-2v-1.502z"/></symbol></svg>