<svg xmlns="http://www.w3.org/2000/svg"><symbol id="check_shield-l3" viewBox="0 0 64 64"><path fill-rule="evenodd" clip-rule="evenodd" d="M31.303 1.053a4.582 4.582 0 011.395 0c.528.082 1.021.28 1.476.462l.113.046 14.745 5.892.305.121c1.76.701 3.128 1.247 4.169 2.224a7.881 7.881 0 012.018 3.098c.479 1.34.478 2.844.476 4.863v14.344c0 7.89-4.033 14.562-8.545 19.57-4.527 5.026-9.722 8.588-12.48 10.303l-.105.065c-.513.32-1.083.677-1.848.852a4.918 4.918 0 01-2.044 0c-.764-.175-1.335-.531-1.848-.852l-.105-.065c-2.758-1.715-7.952-5.277-12.48-10.303C12.034 46.665 8 39.993 8 32.103V17.76c-.001-2.02-.002-3.524.476-4.864a7.88 7.88 0 012.019-3.098c1.04-.977 2.41-1.523 4.168-2.224l.305-.121L29.713 1.56l.113-.046c.456-.182.948-.38 1.477-.462zm.785 3.954a.583.583 0 00-.175 0 .897.897 0 00-.118.037 16.49 16.49 0 00-.598.231l-14.744 5.892c-2.211.883-2.803 1.155-3.22 1.547a3.882 3.882 0 00-.99 1.527c-.215.602-.243 1.35-.243 3.849v14.013c0 6.492 3.329 12.243 7.518 16.893 4.174 4.634 9.02 7.966 11.619 9.582.327.204.482.299.604.362a.5.5 0 00.122.052l.029.003a1.121 1.121 0 00.246-.003.504.504 0 00.122-.052c.122-.063.276-.158.604-.362 2.6-1.616 7.445-4.948 11.619-9.582C48.672 44.346 52 38.596 52 32.103V18.09c0-2.499-.028-3.247-.243-3.849a3.882 3.882 0 00-.99-1.527c-.417-.392-1.008-.664-3.219-1.547L32.803 5.275c-.301-.12-.469-.187-.597-.231a1.237 1.237 0 00-.118-.037zm-.003-.001zm-.17 0zm16.822 15.931a2 2 0 01-.037 2.829l-17.855 17.4a2 2 0 01-2.733.054l-8.927-8.03a2 2 0 012.675-2.974l7.535 6.778 16.514-16.093a2 2 0 012.828.037z"/></symbol></svg>