<svg xmlns="http://www.w3.org/2000/svg"><symbol id="fincom3-l3" viewBox="0 0 48 48"><path d="M12.333 20H29a.667.667 0 000-1.333H12.333a.667.667 0 000 1.333zm0-5.333H19a.667.667 0 000-1.334h-6.667a.667.667 0 000 1.334zm0 10.666H29A.667.667 0 0029 24H12.333a.667.667 0 000 1.333zm11.334 4H12.333a.667.667 0 000 1.334h11.334a.667.667 0 000-1.334zm-2 5.334h-9.334a.667.667 0 000 1.333h9.334a.667.667 0 000-1.333z"/><path d="M36.333 26.909V13.724L26.61 4H5v40h29.333C39.112 44 43 40.112 43 35.333c0-4.089-2.85-7.518-6.667-8.424zM27 6.276l7.057 7.057H27V6.276zm2.719 36.39H6.333V5.334h19.334v9.334H35v12.029c-.228-.02-.45-.03-.667-.03-4.778 0-8.666 3.889-8.666 8.667a8.799 8.799 0 00.058.97c.028.255.065.507.115.754l.02.088c.048.225.106.446.171.665.017.055.032.11.05.164.075.235.159.465.253.691.018.043.038.084.056.126.086.198.18.39.28.58l.07.136c.117.212.243.418.377.618.03.046.062.09.094.136.122.176.25.347.384.513.025.031.049.064.075.095.154.186.317.363.485.534l.126.124c.164.16.331.314.506.46.016.014.03.028.046.04a8.803 8.803 0 00.734.538c.051.033.1.069.152.102zm4.614 0c-4.043 0-7.333-3.29-7.333-7.333S30.29 28 34.333 28a7.432 7.432 0 011.224.111l.295.049c3.317.702 5.815 3.65 5.815 7.173 0 4.044-3.29 7.334-7.334 7.334z"/><path d="M37.786 31.62l-3.73 5.36-2.633-2.162a.666.666 0 10-.846 1.03l3.19 2.62a.668.668 0 00.97-.134l4.143-5.953a.667.667 0 00-1.094-.762z"/></symbol></svg>