<svg xmlns="http://www.w3.org/2000/svg"><symbol id="fincom2-l3" viewBox="0 0 48 48"><path d="M44.93 28.61l.006-.002-6.896-15.045 1.673-.833-.626-1.253-1.63.812-.221-.48a.7.7 0 00-1.273 0l-.196.43a9.006 9.006 0 00-3.787-.839H26.1V10h.35V8.6h-.153l.503-2.014a2.886 2.886 0 10-5.6 0l.503 2.014h-.153V10h.35v1.4h-5.877a9.006 9.006 0 00-3.79.84l-.197-.43a.7.7 0 00-1.272 0l-.22.481-1.631-.815-.626 1.254 1.672.836-6.895 15.042A.683.683 0 003 28.9a4.906 4.906 0 004.9 4.9h7a4.905 4.905 0 004.9-4.9.683.683 0 00-.07-.29l-6.915-15.102a7.616 7.616 0 013.208-.708H21.9v25.61l-2.39 2.39H17a3.504 3.504 0 00-3.5 3.5.7.7 0 00.7.7h19.6a.7.7 0 00.7-.7 3.504 3.504 0 00-3.5-3.5h-2.51l-2.39-2.39V12.8h5.88c1.108 0 2.203.241 3.208.708l-6.925 15.1a.681.681 0 00-.063.292 4.906 4.906 0 004.9 4.9h7a4.906 4.906 0 004.9-4.9.683.683 0 00-.07-.29zM14.9 32.4h-7a3.506 3.506 0 01-3.43-2.8h13.86a3.505 3.505 0 01-3.43 2.8zm3.11-4.2H4.79l6.43-14.028a.691.691 0 00.36 0L18.01 28.2zm4.819-23.228a1.532 1.532 0 012.342 0c.283.36.383.83.27 1.275L24.854 8.6h-1.707l-.588-2.353a1.478 1.478 0 01.27-1.275zm.47 6.428V10h1.4v1.4h-1.4zm1.4 1.4V38h-1.4V12.8h1.4zM31 42.2c.89.001 1.683.562 1.981 1.4H15.02A2.104 2.104 0 0117 42.2h14zm-4.489-1.4h-5.02l1.4-1.4h2.22l1.4 1.4zm9.91-26.626c.115.04.241.035.353-.015L43.21 28.2H29.99l6.43-14.026zM40.1 32.4h-7a3.506 3.506 0 01-3.43-2.8h13.86a3.505 3.505 0 01-3.43 2.8z"/></symbol></svg>