<svg xmlns="http://www.w3.org/2000/svg"><symbol id="help_bubble-l3" viewBox="0 0 64 64"><path fill-rule="evenodd" clip-rule="evenodd" d="M32 6C17.64 6 6 17.64 6 32c0 6.834 2.725 12.523 7.167 17.803a2 2 0 01-.012 2.59L8.348 58H32c14.36 0 26-11.64 26-26S46.36 6 32 6zM2 32C2 15.431 15.431 2 32 2c16.569 0 30 13.431 30 30 0 16.569-13.431 30-30 30H8.348c-3.417 0-5.26-4.008-3.037-6.603l3.722-4.342C4.776 45.602 2 39.428 2 32zm24.929-10.563c-.624.98-.653 2.15-.653 2.91a2 2 0 01-4 0V24.3c0-.8-.002-2.997 1.278-5.01 1.417-2.227 4.073-3.772 8.446-3.772 4.42 0 7.114 1.65 8.507 4.16 1.22 2.198 1.218 4.727 1.217 6.076v.112c0 3.922-2.758 6.112-4.634 7.571l-.314.244c-.886.687-1.564 1.212-2.076 1.787-.515.578-.7 1.033-.7 1.53a2 2 0 11-4 0c0-1.781.78-3.144 1.714-4.191.776-.871 1.77-1.638 2.604-2.282l.316-.245c1.986-1.545 3.09-2.643 3.09-4.414 0-1.465-.038-3.028-.714-4.246-.538-.97-1.706-2.102-5.01-2.102-3.352 0-4.557 1.111-5.071 1.92zM32 43.344a2 2 0 012 2v1.139a2 2 0 01-4 0v-1.139a2 2 0 012-2z"/></symbol></svg>