<svg xmlns="http://www.w3.org/2000/svg"><symbol id="instagram_filled-l2" viewBox="0 0 24 24"><path d="M8.497 12a3.385 3.385 0 003.382 3.389A3.385 3.385 0 0015.261 12a3.385 3.385 0 00-3.382-3.389 3.385 3.385 0 00-3.382 3.39z"/><path fill-rule="evenodd" clip-rule="evenodd" d="M16.776 21.911c2.935-.106 5.06-2.283 5.15-5.224.098-3.123.098-6.254 0-9.377-.09-2.941-2.216-5.119-5.15-5.224a132.836 132.836 0 00-9.551 0C4.29 2.19 2.165 4.369 2.073 7.31a150.268 150.268 0 000 9.377c.092 2.941 2.216 5.118 5.151 5.224 1.552.056 3.339.086 4.893.089 1.553-.003 3.107-.033 4.659-.089zM6.72 12.001a5.163 5.163 0 015.158-5.169A5.163 5.163 0 0117.037 12a5.163 5.163 0 01-5.158 5.168A5.163 5.163 0 016.721 12zm10.618-4.175c.678 0 1.227-.55 1.227-1.23a1.228 1.228 0 10-1.227 1.23z"/></symbol></svg>