<svg width="47" height="36" fill="none" xmlns="http://www.w3.org/2000/svg"><path d="M33.748 21.342h2.974c.085 0 .283-.028.368-.028.567-.113 1.048-.623 1.048-1.331 0-.68-.481-1.19-1.048-1.332-.085-.028-.255-.028-.368-.028h-2.974v2.72z" fill="url(#paint0_linear)"/><path d="M36.383 2.563a5.156 5.156 0 00-5.156 5.155v5.353h7.28c.17 0 .368 0 .51.029 1.643.085 2.86.934 2.86 2.407 0 1.162-.82 2.153-2.35 2.351v.057c1.67.113 2.945 1.048 2.945 2.492 0 1.558-1.416 2.578-3.285 2.578h-7.988v10.48h7.563a5.156 5.156 0 005.155-5.155V2.563h-7.534z" fill="url(#paint1_linear)"/><path d="M37.77 15.847c0-.68-.481-1.133-1.048-1.218-.056 0-.198-.028-.283-.028h-2.691v2.493h2.69c.086 0 .256 0 .284-.029.567-.085 1.048-.538 1.048-1.218z" fill="url(#paint2_linear)"/><path d="M7.888 2.563a5.156 5.156 0 00-5.155 5.155v12.718c1.445.708 2.946 1.161 4.447 1.161 1.785 0 2.748-1.076 2.748-2.55v-6.004h4.418v5.977c0 2.322-1.444 4.22-6.344 4.22-2.974 0-5.297-.651-5.297-.651v10.848h7.563a5.156 5.156 0 005.155-5.155V2.563H7.888z" fill="url(#paint3_linear)"/><path d="M22.136 2.563a5.156 5.156 0 00-5.155 5.155v6.741c1.302-1.104 3.568-1.813 7.222-1.643 1.955.085 4.05.624 4.05.624v2.18c-1.047-.537-2.294-1.02-3.908-1.132-2.776-.199-4.447 1.161-4.447 3.54 0 2.408 1.671 3.767 4.447 3.54 1.614-.113 2.86-.622 3.909-1.132v2.18s-2.068.539-4.05.624c-3.655.17-5.92-.538-7.224-1.643v11.896h7.563a5.156 5.156 0 005.155-5.155V2.563h-7.563z" fill="url(#paint4_linear)"/><defs><linearGradient id="paint0_linear" x1="31.222" y1="19.986" x2="43.951" y2="19.986" gradientUnits="userSpaceOnUse"><stop stop-color="#007940"/><stop offset=".229" stop-color="#00873F"/><stop offset=".743" stop-color="#40A737"/><stop offset="1" stop-color="#5CB531"/></linearGradient><linearGradient id="paint1_linear" x1="31.222" y1="18.002" x2="43.952" y2="18.002" gradientUnits="userSpaceOnUse"><stop stop-color="#007940"/><stop offset=".229" stop-color="#00873F"/><stop offset=".743" stop-color="#40A737"/><stop offset="1" stop-color="#5CB531"/></linearGradient><linearGradient id="paint2_linear" x1="31.222" y1="15.844" x2="43.951" y2="15.844" gradientUnits="userSpaceOnUse"><stop stop-color="#007940"/><stop offset=".229" stop-color="#00873F"/><stop offset=".743" stop-color="#40A737"/><stop offset="1" stop-color="#5CB531"/></linearGradient><linearGradient id="paint3_linear" x1="2.727" y1="18.002" x2="15.653" y2="18.002" gradientUnits="userSpaceOnUse"><stop stop-color="#1F286F"/><stop offset=".475" stop-color="#004E94"/><stop offset=".826" stop-color="#0066B1"/><stop offset="1" stop-color="#006FBC"/></linearGradient><linearGradient id="paint4_linear" x1="16.907" y1="18.002" x2="29.461" y2="18.002" gradientUnits="userSpaceOnUse"><stop stop-color="#6C2C2F"/><stop offset=".173" stop-color="#882730"/><stop offset=".573" stop-color="#BE1833"/><stop offset=".859" stop-color="#DC0436"/><stop offset="1" stop-color="#E60039"/></linearGradient></defs></svg>