<svg xmlns="http://www.w3.org/2000/svg"><symbol id="log_in-l1" viewBox="0 0 16 16"><path d="M12.065 13.225c-.293.024-.674.025-1.243.025H9.417a.75.75 0 000 1.5h1.436c.53 0 .973 0 1.335-.03.378-.03.734-.098 1.07-.27a2.743 2.743 0 001.195-1.203c.17-.337.237-.693.268-1.073.029-.364.029-.81.029-1.344V5.17c0-.535 0-.98-.03-1.344-.03-.38-.097-.736-.267-1.073a2.743 2.743 0 00-1.195-1.202c-.336-.173-.692-.24-1.07-.271-.362-.03-.805-.03-1.335-.03H9.417a.75.75 0 100 1.5h1.405c.569 0 .95 0 1.243.025.285.023.42.065.508.11.232.12.422.31.541.546.046.09.088.229.111.516.024.296.025.68.025 1.253v5.6c0 .572 0 .957-.025 1.253-.023.287-.065.425-.11.516-.12.236-.31.427-.542.546-.088.045-.223.087-.508.11zm-5.48-1.935a.75.75 0 001.06.02l2.875-2.77a.75.75 0 00.003-1.077l-2.875-2.8a.75.75 0 10-1.046 1.074L8.155 7.25H3a.75.75 0 000 1.5h5.14l-1.535 1.48a.75.75 0 00-.02 1.06z"/></symbol></svg>