<svg xmlns="http://www.w3.org/2000/svg"><symbol id="log_in-l2" viewBox="0 0 24 24"><path d="M18.089 19.962C17.639 20 17.057 20 16.2 20H15a1 1 0 100 2h1.241c.805 0 1.47 0 2.01-.044.563-.046 1.08-.145 1.565-.392a4 4 0 001.748-1.748c.247-.485.346-1.002.392-1.564.044-.541.044-1.206.044-2.01V7.758c0-.805 0-1.47-.044-2.01-.046-.563-.145-1.08-.392-1.565a4 4 0 00-1.748-1.748c-.485-.247-1.002-.346-1.564-.392C17.71 2 17.046 2 16.242 2H15a1 1 0 100 2h1.2c.857 0 1.439 0 1.889.038.438.035.663.1.819.18a2 2 0 01.874.874c.08.156.145.38.18.819C20 6.361 20 6.943 20 7.8v8.4c0 .857 0 1.439-.038 1.889-.035.438-.1.663-.18.819a2 2 0 01-.874.874c-.156.08-.38.145-.819.18zm-8.796-2.255a1 1 0 001.414 0l5-5a1 1 0 000-1.414l-5-5a1 1 0 00-1.414 1.414L12.586 11H3a1 1 0 100 2h9.586l-3.293 3.293a1 1 0 000 1.414z"/></symbol></svg>