<svg width="54" height="37" fill="none" xmlns="http://www.w3.org/2000/svg"><path d="M12.062 35.93v-2.385a1.416 1.416 0 00-1.493-1.51 1.469 1.469 0 00-1.336.676 1.395 1.395 0 00-1.255-.675 1.255 1.255 0 00-1.113.563v-.468H6.04v3.798h.835v-2.09a.89.89 0 01.93-1.01c.547 0 .826.359.826 1.002v2.114h.834v-2.106a.894.894 0 01.93-1.01c.563 0 .834.359.834 1.002v2.114l.834-.016zm12.345-3.8h-1.36v-1.152h-.834v1.153h-.755v.755h.77v1.748c0 .882.343 1.406 1.32 1.406.365.002.723-.1 1.033-.294l-.238-.707a1.523 1.523 0 01-.732.215c-.397 0-.548-.255-.548-.636v-1.733h1.351l-.008-.755zm7.048-.094a1.119 1.119 0 00-1.001.556v-.461h-.819v3.798h.827V33.8c0-.627.27-.977.794-.977.177-.002.352.03.517.095l.254-.794a1.768 1.768 0 00-.588-.103l.016.016zm-10.656.397a2.84 2.84 0 00-1.55-.397c-.96 0-1.589.46-1.589 1.215 0 .62.461 1.002 1.312 1.12l.397.056c.453.064.667.183.667.397 0 .294-.302.461-.866.461a2.022 2.022 0 01-1.263-.397l-.398.644a2.74 2.74 0 001.645.493c1.097 0 1.733-.517 1.733-1.24s-.501-1.017-1.328-1.136l-.397-.056c-.358-.048-.643-.12-.643-.374s.27-.445.722-.445c.42.005.83.117 1.192.326l.366-.668zm22.134-.397a1.12 1.12 0 00-1.001.556v-.461h-.819v3.798h.827V33.8c0-.627.27-.977.794-.977.177-.002.353.03.517.095l.254-.794a1.767 1.767 0 00-.588-.103l.016.016zm-10.648 1.986a1.919 1.919 0 002.026 1.987c.496.025.984-.137 1.367-.453l-.398-.668a1.67 1.67 0 01-.993.342 1.22 1.22 0 010-2.432c.36.004.708.124.994.342l.397-.668a1.986 1.986 0 00-1.367-.452 1.918 1.918 0 00-2.026 1.986v.016zm7.74 0v-1.891h-.827v.46a1.442 1.442 0 00-1.192-.556 1.987 1.987 0 100 3.974 1.442 1.442 0 001.192-.557v.461h.826v-1.89zm-3.076 0a1.148 1.148 0 11.694 1.126 1.142 1.142 0 01-.694-1.126zm-9.972-1.987a1.987 1.987 0 00.055 3.974 2.308 2.308 0 001.578-.517l-.398-.612a1.805 1.805 0 01-1.104.397 1.053 1.053 0 01-1.137-.93h2.822v-.317c0-1.192-.74-1.986-1.804-1.986l-.012-.008zm0 .74a.942.942 0 01.961.921h-1.986a.978.978 0 011.009-.922h.016zM47.68 34.03v-3.425h-.795v1.987a1.442 1.442 0 00-1.192-.557 1.987 1.987 0 100 3.973 1.443 1.443 0 001.192-.556v.46h.795V34.03zm1.378 1.347a.399.399 0 01.274.107.371.371 0 01.027.505.37.37 0 01-.15.107.373.373 0 01-.15.032.397.397 0 01-.358-.23.373.373 0 01.083-.414.398.398 0 01.286-.107h-.012zm0 .67a.282.282 0 00.284-.285.294.294 0 00-.077-.199.287.287 0 00-.322-.063.292.292 0 00-.096.063.294.294 0 000 .398.302.302 0 00.223.087h-.012zm.024-.472a.16.16 0 01.103.032.1.1 0 01.036.084.096.096 0 01-.028.071.139.139 0 01-.084.035l.116.132h-.091l-.108-.131h-.035v.131h-.076v-.35l.167-.004zm-.087.068v.095h.087a.088.088 0 00.048 0 .04.04 0 000-.035.04.04 0 000-.036.084.084 0 00-.048 0l-.087-.024zm-4.37-1.613a1.148 1.148 0 11.693 1.126 1.14 1.14 0 01-.694-1.126zm-27.904 0v-1.9h-.826v.462a1.443 1.443 0 00-1.192-.557 1.987 1.987 0 100 3.974 1.442 1.442 0 001.192-.557v.461h.826V34.03zm-3.075 0a1.148 1.148 0 111.152 1.216 1.14 1.14 0 01-1.16-1.216h.008z" fill="#2A2B30"/><path d="M20.523 3.187H33.04v22.491H20.523V3.187z" fill="#FF5F00"/><path d="M21.319 14.435a14.278 14.278 0 015.463-11.248C20.917-1.421 12.496-.75 7.436 4.729c-5.06 5.48-5.06 13.928 0 19.408s13.481 6.15 19.346 1.542a14.28 14.28 0 01-5.463-11.244z" fill="#EB001B"/><path d="M49.926 14.435a14.304 14.304 0 01-23.143 11.243 14.303 14.303 0 000-22.492A14.303 14.303 0 0149.926 14.43v.004zm-1.367 8.86v-.462h.187v-.095h-.473v.095h.203v.461h.084zm.918 0v-.557h-.143l-.167.398-.167-.398h-.127v.556h.103v-.417l.155.362h.108l.154-.362v.422l.084-.005z" fill="#F79E1B"/></svg>