<svg xmlns="http://www.w3.org/2000/svg"><symbol id="phone-l2" viewBox="0 0 24 24"><path d="M6.831 4.1a.935.935 0 00-.844 0l-.451-.892.451.893c-.097.049-.221.156-.791.725l-.153.153c-.543.543-.685.696-.8.9A2.294 2.294 0 004 6.815c0 .24.036.384.196.948a17.419 17.419 0 004.46 7.58 17.419 17.419 0 007.58 4.46c.564.16.707.195.948.196.271 0 .702-.111.938-.244.203-.114.356-.256.9-.8l.152-.152c.57-.57.676-.694.725-.791a.936.936 0 000-.844c-.049-.098-.155-.222-.725-.792l.618-.619-.618.62-.189-.19c-.374-.374-.455-.447-.515-.486a.935.935 0 00-1.02 0c-.06.039-.14.112-.515.487l-.022.022c-.087.087-.199.2-.333.296l-.53-.741.53.74c-.48.344-1.13.455-1.696.29a2.444 2.444 0 01-.387-.157l-.024-.01a15.13 15.13 0 01-4.153-2.949 15.128 15.128 0 01-2.948-4.153l.901-.433-.901.433-.011-.024a2.497 2.497 0 01-.157-.387l.96-.28-.96.28a2.01 2.01 0 01.29-1.696c.095-.134.208-.246.295-.332l.022-.023c.375-.375.448-.456.487-.516a.935.935 0 000-1.019c-.039-.06-.112-.14-.487-.515l-.188-.189c-.57-.57-.694-.676-.792-.725zM5.085 2.317a2.935 2.935 0 012.649 0c.423.214.79.582 1.21 1.002l.093.094.189.189.061.061c.277.276.518.517.688.778l-.821.534.82-.534a2.935 2.935 0 010 3.2c-.169.26-.41.501-.687.777a118.41 118.41 0 00-.154.156 2.804 2.804 0 00.042.088 13.125 13.125 0 002.56 3.605 13.126 13.126 0 003.678 2.594l.014.007.025-.024.069-.069.062-.061c.276-.277.517-.518.777-.688a2.935 2.935 0 013.2 0c.26.17.502.411.778.688l.061.061-.665.666.665-.666.189.189-.707.707.707-.707.094.094c.42.418.788.786 1.002 1.209a2.935 2.935 0 010 2.65c-.214.423-.582.79-1.002 1.209l-.094.093-.153.153-.066.067c-.45.45-.797.798-1.268 1.062a4.255 4.255 0 01-1.923.5c-.538-.002-.931-.113-1.433-.256l-.055-.016a19.419 19.419 0 01-8.449-4.97 19.419 19.419 0 01-4.97-8.448l-.015-.055C2.113 7.753 2.002 7.36 2 6.822a4.255 4.255 0 01.5-1.923c.264-.47.613-.819 1.062-1.268l.067-.066.153-.153.093-.094c.42-.42.786-.788 1.21-1.002l.393.778-.393-.778z"/></symbol></svg>