<svg width="81" height="36" fill="none" xmlns="http://www.w3.org/2000/svg"><path d="M31.384 6.43L20.898 30.606H14.08L8.893 11.301c-.297-1.182-.593-1.612-1.52-2.113C5.817 8.364 3.26 7.612 1 7.146l.148-.716h11.005c1.408 0 2.668.895 3.002 2.471L17.86 22.87l6.744-16.44h6.78zm26.79 16.26c.038-6.375-9.115-6.733-9.078-9.563.037-.86.89-1.79 2.742-2.005.927-.108 3.483-.215 6.374 1.074l1.148-5.122C57.804 6.537 55.803 6 53.32 6c-6.373 0-10.893 3.295-10.93 7.987-.038 3.474 3.223 5.408 5.669 6.59 2.52 1.182 3.372 1.934 3.372 3.009-.037 1.612-2.001 2.328-3.854 2.364-3.26.036-5.15-.86-6.633-1.54l-1.185 5.3c1.519.681 4.298 1.254 7.188 1.29 6.744-.036 11.19-3.295 11.228-8.31zm16.86 7.88H81L75.775 6.394h-5.52c-1.224 0-2.298.716-2.743 1.755l-9.708 22.385h6.781l1.334-3.617h8.3l.815 3.653zm-7.225-8.56l3.409-9.062 1.964 9.062h-5.373zM40.61 6.43l-5.336 24.14H28.79l5.372-24.14h6.448z" fill="url(#paint0_linear)"/><defs><linearGradient id="paint0_linear" x1="8.239" y1="30.193" x2="75.127" y2="4.708" gradientUnits="userSpaceOnUse"><stop stop-color="#1A1E5A"/><stop offset="1" stop-color="#122D98"/></linearGradient></defs></svg>